<svg width="218" height="69" viewBox="0 0 218 69" fill="none" xmlns="http://www.w3.org/2000/svg">
<path d="M24.092 14.928V15.118C23.987 15.118 23.829 15.201 23.619 15.369C23.493 15.369 23.346 15.464 23.179 15.653H23.084V15.463C22.894 15.653 22.748 15.747 22.643 15.747L22.737 15.937C21.415 16.881 20.669 17.353 20.501 17.353L20.596 17.543C20.575 17.668 20.428 17.783 20.155 17.889V17.794L20.218 17.637H20.06L19.871 17.7C19.955 17.952 20.05 18.078 20.155 18.078H20.218C20.764 17.721 21.1 17.542 21.226 17.542V17.637C20.826 18.225 20.376 18.519 19.871 18.519C19.892 18.645 19.955 18.708 20.061 18.708C20.165 18.708 20.459 18.582 20.942 18.33L21.037 18.519L19.619 19.589L19.682 19.779C19.682 19.841 19.452 20.083 18.99 20.503H19.053L19.43 20.408C19.5346 20.4712 19.6548 20.5041 19.777 20.503C19.8424 20.388 19.8749 20.2572 19.871 20.125H20.156V20.219L19.966 20.503V20.566H20.313V20.755C19.893 20.839 18.014 22.151 14.676 24.691C12.114 26.938 9.973 29.091 8.251 31.148C5.857 34.088 4.661 36.922 4.661 39.651L4.755 39.998C4.755 40.061 4.724 40.092 4.661 40.092C4.934 41.877 5.228 42.769 5.543 42.769C6.424 42.769 8.073 41.519 10.487 39.021C11.726 37.131 12.345 35.903 12.345 35.337V32.03L12.881 31.4C12.8248 31.0772 12.7931 30.7506 12.786 30.423L12.976 30.329C13.038 30.329 13.07 30.36 13.07 30.423L13.259 30.329L13.605 30.423L14.045 30.171H14.235C14.949 30.612 15.305 30.875 15.305 30.959C16.041 31.442 16.46 31.767 16.565 31.935L17.006 31.872C17.237 31.872 17.416 32.313 17.542 33.195L17.447 33.573C17.447 33.93 17.416 34.906 17.353 36.502C17.605 38.349 17.993 40.05 18.518 41.604C18.4433 41.6561 18.3566 41.6885 18.266 41.698C18.35 41.95 18.497 42.076 18.707 42.076V42.328C18.581 42.328 18.518 42.36 18.518 42.423C18.665 42.843 18.843 43.263 19.053 43.683L18.896 43.777C18.666 43.294 18.518 43.053 18.456 43.053H18.361C18.361 43.179 18.655 43.808 19.242 44.943V45.005C19.242 45.425 18.77 45.635 17.825 45.635C17.825 45.761 17.615 45.824 17.195 45.824C16.419 45.656 15.82 45.268 15.4 44.659C15.064 44.281 14.613 43.42 14.046 42.076C11.442 44.575 9.563 45.824 8.408 45.824H7.338C6.728 45.824 6.015 45.551 5.196 45.005C2.907 44.165 1.469 43.126 0.881 41.887C0.482 40.795 0.283 39.809 0.283 38.927C0.325 38.927 0.346 38.895 0.346 38.832C0.262 38.832 0.146 38.622 0 38.202C0.126 35.851 0.42 34.539 0.881 34.266H1.165C1.333 33.93 1.417 33.699 1.417 33.573L1.259 33.636C1.175 33.636 1.081 33.552 0.976 33.384C1.165 33.384 1.438 32.901 1.795 31.935C1.879 31.935 2.057 31.705 2.33 31.242L2.52 31.305C2.624 31.305 3.37 30.329 4.755 28.376V28.282C4.315 28.807 4.01 29.069 3.842 29.069L3.747 28.912C6.077 25.952 8.681 23.411 11.557 21.29C12.4394 20.5819 13.3652 19.9296 14.329 19.337C14.3816 19.4116 14.4143 19.4983 14.424 19.589L14.234 19.936L15.054 19.401H15.211V19.589H15.306V19.401C15.243 19.401 15.211 19.38 15.211 19.337L16.911 18.172C17.458 17.752 18.151 17.395 18.991 17.102V17.007H18.896C18.497 17.175 18.256 17.259 18.172 17.259V16.912C18.529 16.912 19.012 16.639 19.62 16.094H19.778V16.377L19.683 16.534H19.778C20.051 16.366 20.261 16.282 20.408 16.282L20.597 16.377C21.583 15.894 22.182 15.653 22.392 15.653C23.148 15.17 23.715 14.928 24.092 14.928ZM20.848 15.748V15.842C20.848 15.926 20.617 16.072 20.155 16.282H19.871V15.999C20.018 15.999 20.344 15.915 20.848 15.747V15.748ZM20.155 16.629H20.218C20.344 16.629 20.407 16.577 20.407 16.472H20.312C20.207 16.472 20.155 16.524 20.155 16.629ZM19.43 16.534L19.336 16.724V16.818H19.43C19.43 16.692 19.493 16.629 19.62 16.629V16.534H19.43ZM17.289 17.448H17.541V17.637H17.289V17.448ZM16.816 17.7C16.942 17.72 17.006 17.784 17.006 17.889C16.438 18.267 15.987 18.624 15.651 18.959C15.567 18.959 15.241 19.138 14.675 19.495H14.58V19.337C15.042 18.98 15.347 18.802 15.494 18.802C15.494 18.592 15.934 18.225 16.816 17.7ZM19.336 18.424H19.241L18.989 18.235V18.613C18.9023 18.664 18.8059 18.6963 18.706 18.708V18.802H18.895C19.525 18.424 19.882 18.235 19.965 18.235V18.078C19.882 18.078 19.673 18.193 19.336 18.424ZM16.376 20.314H16.47C16.596 20.314 16.659 20.251 16.659 20.124V20.03C16.575 20.03 16.482 20.125 16.376 20.314ZM15.494 20.754V20.849C15.5847 20.8589 15.6714 20.8916 15.746 20.944V20.754H15.494ZM14.769 21.038V21.101H14.959V21.291H14.769V21.385H14.864C14.9683 21.322 15.0881 21.2891 15.21 21.29C15.21 21.206 15.095 21.122 14.864 21.038H14.769ZM11.903 21.574C11.903 21.742 11.788 21.826 11.557 21.826V21.92H11.714L11.998 21.574H11.903ZM14.328 21.637L14.234 21.825V21.92H14.328C14.328 21.794 14.391 21.731 14.518 21.731V21.636H14.328V21.637ZM14.769 23.337C14.79 23.463 14.853 23.527 14.959 23.527C15.042 23.295 15.126 23.18 15.21 23.18H15.305C15.452 23.285 15.567 23.337 15.651 23.337C15.924 23.232 16.081 23.117 16.124 22.991C15.998 22.991 15.934 22.928 15.934 22.801V22.739C16.082 22.739 16.292 22.613 16.564 22.361H16.659V22.455L16.564 22.645H16.911C16.9221 22.5448 16.9541 22.448 17.005 22.361H16.753V22.203C16.795 22.014 17.026 21.889 17.446 21.825C17.446 21.7 17.394 21.636 17.289 21.636C16.869 21.657 16.029 22.224 14.769 23.337ZM13.258 22.455V22.55C13.278 22.676 13.331 22.739 13.415 22.739L13.51 22.549V22.455H13.258ZM16.218 22.896V22.991H16.281C16.407 22.991 16.47 22.928 16.47 22.801V22.739H16.375C16.27 22.739 16.218 22.791 16.218 22.896ZM11.714 23.432C11.714 23.495 11.694 23.589 11.651 23.715C11.735 23.715 11.851 23.778 11.998 23.905L12.187 23.621V23.526L11.997 23.621L11.714 23.431V23.432ZM11.274 24.251H11.368C11.598 24.167 11.714 24.072 11.714 23.967H11.557C11.473 23.967 11.378 24.062 11.273 24.251H11.274ZM10.392 24.786V24.975H10.644V24.786H10.392ZM10.014 25.132V25.416C10.14 25.416 10.203 25.353 10.203 25.226V25.132H10.014ZM9.667 25.416C9.65746 25.5066 9.62512 25.5933 9.573 25.668H9.667L9.857 25.416H9.667ZM2.866 30.423L2.96 30.613L2.771 30.707H2.676V30.612C2.696 30.486 2.76 30.423 2.864 30.423H2.866ZM1.606 32.754V32.849C1.69 32.849 1.784 32.754 1.889 32.565H1.795C1.669 32.586 1.605 32.649 1.605 32.754H1.606ZM45.635 17.101L45.729 17.291L45.446 17.983V18.078H45.54V17.888H45.729V18.078L44.659 20.093V20.188H44.753C45.362 19.033 45.813 18.33 46.107 18.078V18.267C45.226 19.7876 44.3857 21.3315 43.587 22.897V22.991H43.682C43.724 22.739 43.829 22.613 43.997 22.613H44.091V22.802L43.871 23.085V23.275L44.281 22.802L44.469 22.896C44.469 22.812 44.564 22.718 44.753 22.613V22.707C44.753 22.897 44.658 23.148 44.469 23.463C44.5325 23.5903 44.565 23.7308 44.564 23.873H44.469L44.28 23.778L44.186 23.968C44.375 23.968 44.469 24.03 44.469 24.156C44.112 24.303 43.913 24.492 43.871 24.723C44.018 24.744 44.091 24.807 44.091 24.912V25.006C44.091 25.153 43.703 25.573 42.926 26.266V26.361L43.115 26.266C43.241 26.287 43.304 26.35 43.304 26.456C43.199 26.456 42.979 26.876 42.643 27.715C42.37 28.03 42.139 28.649 41.95 29.573L41.572 30.234H41.666L41.856 30.14C41.856 30.203 41.886 30.234 41.95 30.234L40.784 32.66C40.511 33.037 40.322 33.226 40.217 33.226L40.312 33.416C40.312 33.751 40.05 34.14 39.525 34.581L39.619 34.77L38.579 36.817H38.296L38.391 37.289C37.593 37.814 37.173 38.359 37.131 38.927C37.131 39.137 36.449 40.134 35.084 41.919C35.147 41.919 35.347 41.793 35.682 41.541V41.635C34.8585 42.5848 33.9523 43.4596 32.974 44.249C32.974 44.564 32.522 44.889 31.62 45.226C30.948 45.666 30.307 45.887 29.698 45.887C28.397 45.887 26.56 45.142 24.187 43.651C22.507 41.845 21.667 39.693 21.667 37.195C21.667 34.507 22.307 31.452 23.589 28.03C24.324 26.728 24.838 26.077 25.132 26.077C25.405 26.077 25.542 25.983 25.542 25.794L27.179 26.266C27.683 26.728 27.935 27.211 27.935 27.715C27.494 28.408 27.273 28.891 27.273 29.164H27.368C27.242 31.242 27.116 32.628 26.99 33.321C27.137 33.321 27.263 33.352 27.368 33.415C27.095 34.759 26.906 35.505 26.801 35.651L26.896 35.841V36.407H26.676V35.557H26.581C26.581 35.787 26.518 36.239 26.391 36.911H26.581V36.722H26.801V36.817C26.528 37.006 26.391 37.163 26.391 37.289V37.573H26.486V37.195H26.676V38.643C26.676 38.79 26.717 38.916 26.801 39.021L26.675 39.211C26.759 39.336 26.801 39.441 26.801 39.525C26.717 39.525 26.675 39.557 26.675 39.62C26.78 39.62 26.98 40.292 27.273 41.635C27.525 41.992 27.651 42.286 27.651 42.517H28.029C29.289 41.782 30.811 40.229 32.596 37.856L35.084 33.73L40.595 23.369C42.675 19.589 43.902 17.658 44.28 17.574C44.28 17.637 44.312 17.668 44.375 17.668L44.28 17.888V17.983L44.847 17.479C44.9619 17.5447 45.0927 17.5776 45.225 17.574C45.225 17.384 45.362 17.227 45.635 17.101ZM43.776 18.456V18.739H43.871C43.976 18.739 44.081 18.645 44.186 18.456V18.172H44.091C43.986 18.172 43.881 18.267 43.776 18.456ZM43.493 19.023V19.337C43.598 19.337 43.693 19.232 43.776 19.023V18.928C43.6893 18.979 43.5929 19.0113 43.493 19.023ZM42.548 25.416C42.5514 25.5528 42.5069 25.6866 42.422 25.794H42.548L42.643 25.604V25.416H42.548ZM27.556 31.683H27.745V31.778L27.461 33.132H27.272C27.272 32.922 27.367 32.439 27.556 31.683ZM26.8 34.392L26.674 34.581V35.053H26.8C26.8 34.885 26.863 34.696 26.989 34.486L26.8 34.392ZM39.524 35.462H39.618C39.429 35.84 39.335 36.061 39.335 36.124H39.145V35.934C39.314 35.62 39.44 35.462 39.524 35.462ZM38.862 36.407H39.052V36.627C39.052 36.754 38.988 36.817 38.862 36.817H38.768C38.8312 36.6896 38.8634 36.5492 38.862 36.407ZM34.611 42.423H34.705C34.831 42.423 34.894 42.349 34.894 42.203V42.107C34.81 42.107 34.716 42.212 34.611 42.422V42.423ZM34.327 42.612C34.327 42.738 34.264 42.801 34.138 42.801V42.895H34.328L34.516 42.612H34.327ZM56.184 0C56.2472 0.104638 56.2801 0.224768 56.279 0.347L56.436 0.252V0.347C56.3395 0.543456 56.286 0.758229 56.279 0.977H56.342L56.782 0.693L56.877 0.882C56.058 2.982 55.649 4.126 55.649 4.315H55.554L55.649 4.472L54.767 6.519H55.019C55.082 6.099 55.208 5.889 55.397 5.889C55.397 5.973 55.481 6.068 55.649 6.173C55.6997 6.0859 55.7318 5.98917 55.743 5.889H55.838C55.943 5.91 55.995 5.973 55.995 6.079C55.743 6.54 55.565 6.771 55.46 6.771V6.866C55.586 7.013 55.649 7.128 55.649 7.212H55.743C55.827 7.212 55.943 7.034 56.09 6.677V6.236C56.174 6.236 56.29 6.089 56.436 5.795L56.341 5.638L57.066 3.874C57.066 3.769 56.95 3.654 56.72 3.527C56.615 3.527 56.489 3.643 56.341 3.874C56.425 3.874 56.572 4.021 56.782 4.314C56.384 4.861 56.122 5.239 55.995 5.449H55.838V5.291H55.648C55.648 5.627 55.586 5.795 55.46 5.795C55.355 5.795 55.302 5.743 55.302 5.638C55.512 5.302 55.691 4.861 55.838 4.315C56.362 2.971 56.625 2.268 56.625 2.205L56.877 2.015H56.971C56.9148 2.22054 56.8833 2.43202 56.877 2.645C57.066 2.645 57.16 2.761 57.16 2.992L56.971 3.086L57.066 3.59H57.223C57.244 3.296 57.454 2.95 57.853 2.551C57.853 2.614 57.885 2.646 57.948 2.646C57.9112 2.75472 57.8533 2.8551 57.7776 2.94142C57.7019 3.02773 57.61 3.09827 57.507 3.149C57.507 3.212 57.538 3.244 57.601 3.244C57.4421 4.05459 57.2317 4.85421 56.971 5.638L57.161 5.732C57.371 4.892 57.601 4.388 57.853 4.22C57.853 4.283 57.885 4.315 57.948 4.315C57.885 4.965 57.79 5.375 57.664 5.543H57.948C57.948 5.606 57.916 5.638 57.853 5.638L57.948 6.078C56.9886 8.8554 56.0752 11.6485 55.208 14.456C55.67 14.456 55.901 14.476 55.901 14.519L56.09 14.456C57.286 14.456 58.4 14.393 59.428 14.266C59.5145 14.3174 59.611 14.3497 59.711 14.361C59.795 14.256 60.499 14.161 61.821 14.078C61.8957 14.1301 61.9824 14.1625 62.073 14.172C62.188 14.1066 62.3188 14.0741 62.451 14.078C62.451 14.204 62.504 14.267 62.609 14.267C62.629 14.141 62.693 14.077 62.798 14.077H63.585L64.026 14.015C64.026 14.057 64.058 14.078 64.121 14.078C64.121 13.994 64.646 13.878 65.695 13.731V13.826L67.9 13.48C68.005 13.543 68.12 13.574 68.246 13.574C68.267 13.448 68.33 13.385 68.436 13.385H68.53C68.6519 13.3841 68.7717 13.417 68.876 13.48C68.9806 13.4168 69.1008 13.3839 69.223 13.385L69.412 13.48C69.412 13.396 69.496 13.301 69.664 13.196C69.7386 13.2485 69.8253 13.2812 69.916 13.291C69.936 13.186 70 13.133 70.104 13.133H70.356L70.293 13.291H70.545C70.545 13.123 71.165 12.944 72.404 12.755C72.5083 12.818 72.6281 12.8509 72.75 12.85C72.939 12.85 73.201 12.734 73.537 12.503C73.537 12.629 73.621 12.693 73.789 12.693C73.957 12.693 74.167 12.598 74.419 12.409C74.545 12.409 74.661 12.44 74.766 12.503C74.8528 12.4524 74.9492 12.4204 75.049 12.409L75.206 12.503C75.71 12.23 76.298 12.031 76.97 11.905C76.97 11.842 77.033 11.81 77.16 11.81C77.18 11.915 77.233 11.968 77.317 11.968C77.506 11.968 77.894 11.852 78.482 11.621C78.5863 11.684 78.7061 11.7169 78.828 11.716H79.018V11.621C78.9655 11.5464 78.9328 11.4597 78.923 11.369H79.017C79.1392 11.3679 79.2594 11.4008 79.364 11.464L82.45 10.645H82.545L82.45 10.488V10.393C82.555 10.414 82.608 10.477 82.608 10.583L82.797 10.488L82.986 10.582C84.2789 10.1585 85.5926 9.80133 86.922 9.512H87.206V9.259H87.552C88.14 9.154 88.434 9.029 88.434 8.881L88.686 9.071C89.001 8.902 89.473 8.724 90.103 8.535V8.44L90.544 8.535C91.531 8.178 92.297 7.979 92.844 7.937C92.844 7.874 92.906 7.842 93.032 7.842L93.19 7.937L94.071 7.559H94.261L94.512 7.748H94.607L94.512 7.558C94.827 7.454 95.122 7.307 95.394 7.118H95.646C95.646 7.034 95.741 6.95 95.93 6.866C95.93 6.95 96.014 7.034 96.182 7.118C96.182 7.013 96.276 6.96 96.465 6.96L96.906 7.055C96.906 6.929 96.958 6.865 97.063 6.865C97.189 6.929 97.283 6.96 97.347 6.96L97.787 6.614H97.851L97.788 6.771V6.866H97.851C98.838 6.551 99.489 6.288 99.803 6.078L100.244 6.173C100.265 6.047 100.328 5.984 100.433 5.984L100.591 6.078H100.685V5.984H100.496V5.795L101.126 5.889H101.221L101.126 5.732V5.638L101.914 5.354V5.449L101.819 5.638H102.26C102.449 5.47 103.184 5.26 104.465 5.008C104.486 4.924 105.252 4.693 106.764 4.315C106.785 4.189 106.848 4.125 106.953 4.125L107.11 4.22C107.404 4.094 108.527 3.8 110.48 3.338C110.48 3.275 110.501 3.244 110.543 3.244H111.267L111.708 3.338V2.992C111.792 2.992 112.139 2.898 112.748 2.709H113.094V2.803L113.031 2.992H113.094C113.829 2.762 114.301 2.646 114.511 2.646V2.709C114.448 2.877 113.367 3.202 111.267 3.685L104.906 5.449V5.638H105C105.546 5.448 105.871 5.354 105.976 5.354V5.449L106.323 5.291C106.403 5.32698 106.488 5.34832 106.575 5.354C106.869 5.207 107.016 5.092 107.016 5.008L107.457 5.102C107.75 4.872 107.96 4.756 108.086 4.756L108.527 4.85C108.548 4.724 108.611 4.661 108.716 4.661L108.874 4.756C108.874 4.566 109.262 4.42 110.039 4.315H110.197V4.567H110.48L110.385 4.126H110.921L111.425 3.779H111.519L111.708 3.874C111.729 3.748 111.782 3.684 111.866 3.684H111.96C111.96 3.832 112.023 3.979 112.149 4.126L111.866 4.472C111.929 4.472 111.96 4.504 111.96 4.567H111.866C111.761 4.567 111.708 4.483 111.708 4.315C111.582 4.335 111.519 4.388 111.519 4.472C111.606 4.52303 111.703 4.55539 111.803 4.567C111.803 4.777 111.383 4.892 110.543 4.913C110.595 4.83835 110.628 4.75162 110.637 4.661H110.543C110.459 4.724 110.291 4.756 110.039 4.756C110.039 4.861 110.123 4.913 110.291 4.913V5.103L109.85 5.197L109.756 5.007C109.756 4.945 109.787 4.913 109.85 4.913L109.756 4.756V4.661H110.039V4.567C109.939 4.55534 109.843 4.52298 109.756 4.472C109.583 4.60005 109.372 4.66689 109.157 4.662V4.85C109.283 4.85 109.451 4.934 109.661 5.102H109.756L109.598 5.354C109.633 5.44509 109.654 5.54077 109.661 5.638C108.989 5.805 108.548 5.952 108.338 6.078C108.233 6.078 108.181 6.015 108.181 5.889C109.063 5.617 109.504 5.439 109.504 5.354H109.157V5.197H109.315V5.007H109.22C108.842 5.427 108.433 5.637 107.992 5.637C107.941 5.55024 107.909 5.45388 107.897 5.354H107.834L107.551 5.543L107.394 5.449L107.299 5.638H107.551V5.795C106.501 6.11 105.976 6.32 105.976 6.425H106.071L106.669 6.33V6.425C106.669 6.53 106.197 6.708 105.252 6.96C105.252 7.023 105.199 7.055 105.094 7.055C104.906 7.055 104.811 6.929 104.811 6.677H104.654C104.402 7.097 104.16 7.307 103.929 7.307V7.212C103.698 7.338 103.499 7.402 103.331 7.402V7.212C103.772 7.107 104.034 7.055 104.118 7.055L104.024 6.865C100.79 7.748 99.153 8.252 99.111 8.378C100.422 8.09878 101.716 7.74114 102.984 7.307C102.984 7.37 103.247 7.548 103.772 7.842C103.562 7.947 103.205 8.062 102.701 8.189V8.094L102.543 8.189H102.197C102.281 7.979 102.659 7.863 103.331 7.842C103.331 7.716 103.268 7.653 103.142 7.653H102.701C102.155 7.843 101.809 7.937 101.662 7.937H101.473C101.473 8.126 101 8.294 100.055 8.441C100.055 8.566 99.887 8.629 99.552 8.629L99.614 8.819C99.887 8.692 100.276 8.629 100.78 8.629H100.937C100.937 8.399 101.116 8.283 101.473 8.283H101.914V8.441H101.756C101.567 8.441 101.21 8.566 100.685 8.818C100.223 8.818 99.489 9.049 98.481 9.511C97.893 9.511 97.599 9.595 97.599 9.763C97.5195 9.72706 97.4341 9.70572 97.347 9.7L96.969 9.858C96.969 9.753 96.916 9.7 96.812 9.7C96.812 9.91 96.486 10.057 95.835 10.141L95.646 10.047H95.583V10.141H95.741C95.741 10.246 95.688 10.299 95.583 10.299L95.143 10.204C95.121 10.288 94.827 10.467 94.261 10.74C94.261 10.677 94.229 10.645 94.166 10.645C94.1149 10.732 94.0826 10.8288 94.071 10.929H93.977C93.977 10.803 93.946 10.739 93.883 10.739L93.725 10.834L93.536 10.74C93.473 10.74 93.326 10.887 93.096 11.18C93.096 11.076 93.043 11.023 92.938 11.023H92.654C92.424 11.191 91.898 11.359 91.08 11.527C91.017 11.296 90.901 11.18 90.733 11.18C90.6463 11.231 90.5499 11.2633 90.45 11.275V11.37C90.702 11.37 90.828 11.422 90.828 11.527C90.471 11.674 90.292 11.8 90.292 11.905H90.387L90.292 12.062V12.157C92.392 11.632 94.061 11.128 95.3 10.645C95.363 10.645 95.394 10.677 95.394 10.74C95.856 10.509 96.182 10.393 96.371 10.393L96.528 10.488C96.528 10.362 97.536 10.036 99.552 9.511C106.438 7.517 110.427 6.404 111.519 6.173V6.33L101.315 9.26C100.475 9.49 100.003 9.658 99.898 9.763C99.625 9.763 98.187 10.152 95.583 10.928C95.394 11.034 94.271 11.359 92.213 11.905C92.129 11.905 91.835 12.041 91.331 12.315C91.2519 12.2788 91.1668 12.2571 91.08 12.251C91.0275 12.3256 90.9948 12.4123 90.985 12.503L90.545 12.409H90.45V12.503H90.639V12.693C89.169 12.965 88.35 13.228 88.182 13.48C88.0953 13.429 87.9989 13.3967 87.899 13.385C87.668 13.595 86.67 13.92 84.907 14.361C84.907 14.424 84.875 14.456 84.812 14.456C84.7374 14.4035 84.6507 14.3708 84.56 14.361L84.466 14.519L84.025 14.456C83.835 14.456 83.637 14.571 83.426 14.802C83.3392 14.7514 83.2428 14.7194 83.143 14.708L83.049 14.897L82.891 14.802H82.702C82.702 14.97 82.65 15.054 82.545 15.054H82.355L81.915 14.96C81.915 15.086 81.768 15.212 81.474 15.338L80.939 15.243C80.162 15.768 76.76 16.587 70.734 17.7C69.264 17.994 67.354 18.288 65.002 18.582V18.487C61.58 19.033 57.99 19.306 54.232 19.306H54.074C53.864 19.516 53.276 21.594 52.31 25.542C49.476 34.465 47.208 40.691 45.508 44.218C45.361 44.743 44.983 45.247 44.374 45.73H44.184C43.597 45.73 43.303 45.667 43.303 45.54L43.146 45.635H43.051L41.476 45.037C41.3791 45.0441 41.2838 45.0653 41.193 45.1C40.773 45.1 40.363 44.806 39.965 44.218C41.371 41.258 42.4 38.853 43.051 37.006L44.626 32.849C44.626 32.701 44.951 31.799 45.602 30.14C46.421 27.683 47.272 24.712 48.153 21.227C48.258 21.227 48.499 20.555 48.877 19.212C46.043 18.729 44.164 18.141 43.24 17.448C42.946 17.448 42.148 16.86 40.846 15.684V15.401H41.036V15.243C40.741 14.803 40.563 14.246 40.5 13.574C40.437 13.574 40.405 13.542 40.405 13.48L40.5 13.29C40.437 13.1857 40.4041 13.0659 40.405 12.944H40.5L40.405 12.755V12.692C40.468 11.81 40.647 11.369 40.941 11.369L45.067 13.291L47.712 14.015L47.902 13.92C48.237 14.025 48.972 14.172 50.106 14.361C50.4 13.606 50.694 12.661 50.987 11.527C51.3758 9.94206 51.8702 8.38491 52.467 6.866C52.552 6.404 52.699 6.173 52.909 6.173C52.909 6.11 52.888 6.078 52.846 6.078C52.846 5.512 53.076 5.008 53.539 4.567L53.444 4.409C53.843 4.115 54.106 3.969 54.231 3.969C54.231 3.779 54.211 3.685 54.168 3.685C54.168 3.559 54.252 3.212 54.42 2.645H54.861C55.239 1.449 55.681 0.567 56.184 0ZM56.971 1.48H57.161V1.764H56.782V1.669C56.804 1.543 56.866 1.48 56.972 1.48H56.971ZM115.677 1.921V2.111C115.257 2.215 115.015 2.268 114.952 2.268L114.858 2.11C115.114 1.98791 115.393 1.92339 115.677 1.921ZM116.117 2.205H116.369V2.362H115.928C115.949 2.257 116.012 2.205 116.117 2.205ZM115.834 2.362C115.834 2.509 115.488 2.625 114.795 2.709L114.7 2.551C115.288 2.425 115.666 2.362 115.834 2.362ZM117.062 2.457H117.251C117.251 2.604 116.989 2.687 116.464 2.709V2.551L117.062 2.457ZM111.96 3.149V3.244H112.055C112.517 3.181 112.748 3.097 112.748 2.992H112.653C112.611 2.992 112.38 3.045 111.96 3.149ZM115.393 2.898V3.086L115.236 2.992C115.236 3.097 115.173 3.149 115.047 3.149H114.952C114.847 3.149 114.795 3.097 114.795 2.992L115.393 2.898ZM114.795 3.086L114.606 3.338C114.658 3.41265 114.691 3.49938 114.7 3.59H114.606L114.354 3.433H114.07L114.165 3.59V3.685H113.976C113.892 3.685 113.808 3.601 113.724 3.433C113.85 3.307 114.207 3.191 114.795 3.086ZM113.472 3.338L113.629 3.779L113.377 3.969H113.283C113.157 3.969 113.094 3.905 113.094 3.779H113.472V3.685H113.094C113.094 3.811 113.041 3.874 112.937 3.874C112.811 3.874 112.748 3.811 112.748 3.684C112.748 3.58 112.989 3.464 113.472 3.338ZM112.149 3.685H112.59C112.59 3.915 112.643 4.031 112.748 4.031H113.472V4.126C113.472 4.252 113.199 4.346 112.653 4.409V4.315L112.748 4.125C112.433 4.125 112.233 4.01 112.149 3.779V3.685ZM111.708 3.968L111.614 4.126V4.22C111.718 4.15734 111.838 4.12481 111.96 4.126V4.031C111.873 4.02532 111.788 4.00398 111.708 3.968ZM56.278 4.031L56.184 4.472C56.268 4.472 56.384 4.357 56.53 4.126L56.341 4.031H56.278ZM110.732 4.315V4.472C110.858 4.472 110.921 4.535 110.921 4.662H111.173C111.299 4.662 111.362 4.598 111.362 4.472C111.236 4.472 111.173 4.42 111.173 4.315H111.425V4.125C111.257 4.252 111.026 4.315 110.732 4.315ZM112.59 4.567H112.748V4.756H112.401C112.422 4.63 112.485 4.567 112.59 4.567ZM55.995 4.756C55.995 4.84 55.943 4.956 55.838 5.102V5.197C55.922 5.197 56.038 5.081 56.184 4.85L55.995 4.756ZM106.764 5.449C106.827 5.449 106.911 5.48 107.016 5.543H107.11V5.449C107.005 5.449 106.953 5.396 106.953 5.291C106.827 5.312 106.764 5.365 106.764 5.449ZM102.26 5.291H102.354V5.354C102.354 5.48 102.302 5.543 102.197 5.543L102.103 5.354L102.26 5.291ZM104.37 5.638C104.433 5.74235 104.466 5.86211 104.465 5.984H104.559C104.559 5.879 104.643 5.732 104.811 5.543H104.654C104.567 5.59403 104.47 5.62639 104.37 5.638ZM106.417 5.543L106.512 5.732C106.587 5.67988 106.673 5.64754 106.764 5.638V5.543H106.417ZM106.953 5.795H107.016C107.142 5.795 107.205 5.743 107.205 5.638H107.11C107.005 5.658 106.953 5.711 106.953 5.795ZM110.826 5.543H111.078V5.732H110.826V5.543ZM56.625 6.677C56.793 6.677 56.94 6.383 57.065 5.795H56.971C56.804 5.795 56.688 6.089 56.625 6.677ZM103.047 6.173L104.118 5.889V5.795H104.024C103.373 5.879 103.047 6.005 103.047 6.173ZM105.976 6.078H106.134C106.221 6.02737 106.317 5.99536 106.417 5.984V5.889H106.134C106.029 5.91 105.976 5.972 105.976 6.078ZM110.197 5.795L110.291 5.984L110.039 6.173H109.409C109.409 6.068 109.672 5.942 110.197 5.795ZM107.646 5.984H107.992C107.992 6.11 107.939 6.173 107.834 6.173H107.646V5.984ZM102.26 6.236V6.425H102.354L102.543 6.33C102.648 6.39304 102.768 6.42592 102.89 6.425H102.984C102.984 6.341 102.869 6.257 102.638 6.173C102.638 6.215 102.606 6.236 102.543 6.236V6.173C102.452 6.20766 102.357 6.22889 102.26 6.236ZM108.622 6.173H108.716C108.821 6.173 108.874 6.225 108.874 6.33V6.425H108.622V6.173ZM96.812 7.843V7.937H97.063C97.273 7.811 97.662 7.685 98.229 7.559C98.229 7.643 98.313 7.737 98.481 7.842H98.575C98.449 7.695 98.386 7.601 98.386 7.559C98.576 7.454 98.754 7.401 98.922 7.401L99.363 7.496L99.268 7.306L102.008 6.519V6.33L96.811 7.842L96.812 7.843ZM107.74 6.425H108.086C108.086 6.551 108.023 6.614 107.897 6.614H107.74V6.425ZM102.984 6.614V6.771C103.173 6.771 103.32 6.803 103.425 6.866V6.676L102.984 6.614ZM52.562 7.054V7.496H52.657L52.751 7.055L52.562 7.054ZM101.914 7.054C101.935 7.16 101.998 7.212 102.103 7.212H102.197C102.197 7.107 102.134 7.055 102.008 7.055L101.914 7.054ZM96.276 7.118V7.212H96.623V7.118H96.276ZM105.346 7.118H105.63C105.63 7.244 105.567 7.307 105.441 7.307H105.346V7.118ZM55.554 7.496V7.653C55.6411 7.60229 55.7378 7.57028 55.838 7.559V7.307H55.743C55.617 7.327 55.554 7.391 55.554 7.496ZM54.514 7.401V7.653C54.62 7.653 54.672 7.601 54.672 7.496V7.401H54.514ZM104.906 7.307V7.496L104.465 7.559C104.465 7.433 104.612 7.349 104.906 7.307ZM103.866 7.559H104.307V7.748C104.097 7.811 103.971 7.842 103.929 7.842L103.866 7.653V7.559ZM95.3 8.283V8.378H95.489C95.594 8.378 95.772 8.315 96.024 8.188C96.0986 8.24052 96.1853 8.27321 96.276 8.283L96.371 8.094H96.181C96.035 8.094 95.741 8.157 95.3 8.283ZM92.497 8.189V8.283H92.843V8.189H92.497ZM94.261 8.724H94.512L94.764 8.535C94.851 8.58587 94.9478 8.6179 95.048 8.629L95.142 8.441C95.016 8.441 94.953 8.42 94.953 8.378C94.491 8.503 94.261 8.619 94.261 8.724ZM97.851 8.818H97.945C98.071 8.818 98.135 8.755 98.135 8.629H98.04C97.914 8.65 97.85 8.713 97.85 8.819L97.851 8.818ZM99.016 8.818C99.016 8.755 98.985 8.724 98.922 8.724C98.922 8.829 98.302 9.028 97.063 9.322V9.512H97.347C97.494 9.406 98.197 9.175 99.457 8.818V8.629H99.268L99.016 8.818ZM94.859 9.606H95.142V9.416H95.048C94.922 9.438 94.859 9.501 94.859 9.606ZM95.835 9.606V9.763L96.717 9.7V9.607C96.6263 9.59721 96.5396 9.56452 96.465 9.512C96.235 9.575 96.025 9.607 95.835 9.607V9.606ZM54.672 9.7V9.952H54.956V9.7H54.672ZM93.536 10.299V10.393H93.726C93.936 10.393 94.576 10.215 95.646 9.858V9.763H95.394C95.058 9.953 94.439 10.131 93.536 10.299ZM93.379 10.047H93.536C93.623 9.99591 93.7198 9.96356 93.82 9.952V9.858H93.536C93.431 9.878 93.379 9.942 93.379 10.047ZM91.332 10.582V10.74L91.962 10.645L91.867 10.488L91.332 10.582ZM90.891 10.645V10.74H91.268L91.174 10.582C91.0832 10.6166 90.9879 10.6379 90.891 10.645ZM92.749 10.74H92.938C93.043 10.74 93.095 10.687 93.095 10.582H92.938C92.812 10.582 92.749 10.635 92.749 10.74ZM91.709 10.834V11.023C91.899 11.023 92.045 11.044 92.15 11.086C92.15 10.918 92.318 10.834 92.654 10.834V10.645H92.591C92.171 10.771 91.877 10.834 91.709 10.834ZM89.662 11.023V11.086H90.009C90.135 11.086 90.198 11.034 90.198 10.929C90.135 10.929 90.103 10.897 90.103 10.834C89.914 10.96 89.767 11.023 89.663 11.023H89.662ZM91.08 11.086V11.181C91.2019 11.1819 91.3216 11.149 91.426 11.086L91.615 11.181H91.709V11.086C91.521 11.086 91.426 11.002 91.426 10.834C91.196 10.918 91.08 11.002 91.08 11.086ZM88.434 11.81V11.905H88.529L89.662 11.621C89.788 11.684 89.882 11.716 89.946 11.716V11.81C89.946 11.915 89.883 11.968 89.756 11.968C89.6377 11.9693 89.5203 11.9479 89.41 11.905L88.875 12.157L88.686 12.062C88.686 12.146 88.539 12.262 88.246 12.409H88.088L87.898 12.314C87.898 12.44 87.752 12.504 87.458 12.504L87.552 12.692L87.363 12.755C87.363 12.65 87.311 12.598 87.206 12.598C87.1189 12.6487 87.0222 12.6808 86.922 12.692C87.048 12.839 87.112 12.955 87.112 13.039H87.3L87.206 12.849V12.755L87.646 12.85C87.752 12.85 87.804 12.797 87.804 12.692L87.994 12.755H88.182L88.088 12.598L88.245 12.503C88.266 12.629 88.329 12.693 88.435 12.693H88.623L88.529 12.503L88.686 12.409V12.598C89.442 12.451 89.946 12.241 90.198 11.968L90.103 11.81L90.387 11.37H89.946V11.621H89.851V11.369L88.434 11.81ZM86.922 12.314H87.3C87.405 12.314 87.458 12.262 87.458 12.157H87.111C86.985 12.177 86.922 12.23 86.922 12.314ZM84.655 12.85V12.944H85.001V12.755H84.907C84.8324 12.8075 84.7457 12.8402 84.655 12.85ZM86.67 12.85V12.944C86.691 13.07 86.754 13.134 86.86 13.134H86.922V12.85H86.67ZM85.978 12.944C85.979 13.0662 85.9461 13.1863 85.883 13.291H86.135V13.133L86.324 13.196H86.576V13.133C86.576 13.007 86.523 12.944 86.419 12.944H85.978ZM85.537 13.134C85.537 13.238 85.474 13.291 85.347 13.291C85.369 13.417 85.432 13.48 85.537 13.48H85.694V13.385L85.6 13.196C85.663 13.196 85.694 13.176 85.694 13.133H85.537V13.134ZM82.545 13.921L82.608 14.078C82.5333 14.1301 82.4466 14.1625 82.356 14.172C82.376 14.298 82.44 14.362 82.545 14.362C83.175 14.109 83.584 13.899 83.773 13.732C83.92 13.732 84.088 13.795 84.277 13.92L84.371 13.731C84.308 13.731 84.277 13.7 84.277 13.637L84.717 13.732L85.253 13.574C85.253 13.448 85.201 13.385 85.096 13.385H85.001L84.718 13.574C84.718 13.448 84.697 13.385 84.655 13.385C84.568 13.4361 84.4712 13.4684 84.371 13.48V13.385C83.447 13.742 82.839 13.92 82.545 13.92V13.921ZM81.379 14.361C81.4 14.466 81.463 14.519 81.569 14.519C81.989 14.519 82.219 14.435 82.261 14.267L81.821 14.172V14.362H81.726V14.172H81.568C81.442 14.193 81.379 14.256 81.379 14.362V14.361ZM80.687 14.456V14.519L81.222 14.613C81.222 14.529 81.127 14.445 80.938 14.361C80.8637 14.4133 80.7773 14.446 80.687 14.456ZM63.397 22.14H64.782C68.12 22.14 70.745 23.642 72.655 26.644C73.243 27.967 73.674 29.248 73.947 30.486L73.821 31.053V31.526C73.821 31.694 73.863 31.851 73.947 31.998C73.6322 33.8876 73.049 35.7224 72.215 37.447C72.215 38.181 71.669 39.305 70.577 40.817C69.905 40.942 69.097 41.52 68.152 42.549C67.438 42.864 66.504 43.399 65.349 44.155H65.475C66.441 43.861 67.018 43.714 67.207 43.714V43.934L61.758 45.792C60.31 45.792 58.808 45.247 57.255 44.155C56.646 43.567 55.911 42.528 55.05 41.037C55.05 40.932 54.62 39.851 53.759 37.793C53.675 36.869 53.559 36.407 53.413 36.407C53.413 33.615 54.883 31.327 57.822 29.542C58.892 29.059 59.9 28.712 60.845 28.502C60.845 28.418 60.877 28.376 60.94 28.376C61.926 28.586 62.588 28.975 62.924 29.542C62.924 29.688 63.113 30.077 63.491 30.707V31.053C63.491 31.494 63.071 32.04 62.231 32.691C62.378 32.712 62.451 32.785 62.451 32.911C61.864 33.205 61.36 33.751 60.94 34.549V34.769H61.066L61.664 34.423H62.105L59.68 36.155C58.82 37.058 58.273 37.95 58.042 38.832C58.042 39 58.357 39.232 58.987 39.525H59.554C60.961 39.525 62.934 38.905 65.474 37.667C67.28 36.323 68.561 34.854 69.317 33.257C69.842 32.292 70.22 30.98 70.451 29.321V28.502C69.905 27.642 68.708 26.991 66.861 26.55C66.168 26.55 65.591 26.466 65.128 26.298L63.144 26.55V26.298C63.249 26.298 63.68 26.224 64.435 26.078H66.42L66.987 26.172L67.113 25.952L66.861 25.825C66.21 25.909 65.674 25.951 65.254 25.951L63.491 25.384H63.271C63.102 25.384 62.945 25.416 62.798 25.479C62.6605 25.4133 62.5094 25.3807 62.357 25.384L61.758 25.479C61.338 24.954 61.034 24.691 60.845 24.691C60.53 24.566 60.373 24.45 60.373 24.345C60.373 24.261 60.53 24.02 60.845 23.621C60.845 23.306 60.645 23.001 60.247 22.707C61.171 22.329 62.221 22.14 63.397 22.14ZM88.151 24.345V24.44C88.067 24.65 87.846 24.755 87.489 24.755V24.975H87.709C87.899 24.828 88.497 24.65 89.505 24.44L90.04 24.566C90.082 24.566 90.23 24.523 90.481 24.439C91.153 24.439 92.318 24.869 93.977 25.731C94.544 26.214 94.827 26.497 94.827 26.581C94.7725 26.6777 94.7404 26.7853 94.733 26.896C95.279 27.253 96.056 27.956 97.063 29.006C98.029 27.998 99.552 27.043 101.63 26.14L102.166 26.046V26.14C102.48 25.867 103.257 25.584 104.496 25.29V25.416L105.126 25.196C105.223 25.2505 105.33 25.2826 105.441 25.29C105.945 25.227 106.228 25.195 106.291 25.195C106.375 25.195 106.806 25.332 107.583 25.605C107.583 25.5 107.719 25.395 107.992 25.29C109.152 25.7676 110.287 26.3037 111.393 26.896C112.128 27.148 112.8 27.536 113.409 28.061C114.291 28.271 115.278 29.331 116.369 31.242C116.792 31.7418 117.223 32.2351 117.661 32.722C118.018 33.752 118.196 34.392 118.196 34.644C118.112 34.644 118.07 34.675 118.07 34.738C118.217 34.738 118.291 34.843 118.291 35.053C118.144 35.2 118.039 35.945 117.976 37.289C117.178 39.199 114.669 41.604 110.448 44.501C106.669 47.084 103.299 49.141 100.339 50.674C97.672 52.501 95.342 54.233 93.347 55.871C88.35 60.679 85.621 63.65 85.159 64.784C84.129 66.211 83.563 66.925 83.458 66.925H83.143V67.02L83.363 67.335H83.238L83.048 67.24H82.734C82.734 67.072 82.587 66.967 82.293 66.925V66.61H82.073C82.073 66.82 82.009 66.925 81.883 66.925H81.757V66.799C81.757 66.673 81.904 66.327 82.198 65.759L81.978 65.854C81.831 65.854 81.758 65.781 81.758 65.634C82.534 64.437 82.996 63.839 83.143 63.839V63.744C82.723 63.744 82.513 63.639 82.513 63.429L83.458 62.138L83.678 62.233C83.678 61.792 84.067 61.162 84.844 60.343H84.938V60.437L84.623 60.878V61.193H84.749C84.854 61.193 85.033 60.983 85.285 60.563V60.217C85.054 60.217 84.938 60.154 84.938 60.027C86.282 58.243 87.132 57.351 87.489 57.351V57.571H87.709L87.489 57.256C87.72 56.879 88.256 56.238 89.095 55.336V55.241H89.001C88.8926 55.2939 88.7752 55.3258 88.655 55.335C88.655 55.23 88.907 54.989 89.41 54.611L89.63 54.705H89.725V54.611H89.505C89.525 54.464 89.599 54.391 89.725 54.391L89.945 54.485H90.04V54.39H89.82V54.17C89.82 54.044 89.935 53.981 90.166 53.981V53.761C89.306 54.348 88.875 54.695 88.875 54.8C87.993 55.598 87.531 55.997 87.489 55.997H87.395V55.871L87.489 55.651H87.395C87.311 55.651 86.995 55.976 86.45 56.627V56.721H86.639V56.941C86.429 57.298 85.862 57.939 84.939 58.863L84.434 58.422C84.497 58.338 84.529 58.159 84.529 57.886H84.434V57.792C84.434 57.645 84.571 57.572 84.844 57.572L84.749 57.351C84.749 57.246 85.169 56.962 86.009 56.501C86.576 56.018 87.321 55.209 88.245 54.076H88.151L87.931 54.17L87.804 53.981C88.035 53.897 88.256 53.645 88.466 53.225H88.655V53.131L88.56 52.911C88.77 52.763 89.022 52.658 89.316 52.595L89.19 52.375L89.82 51.934C89.757 51.934 89.725 51.902 89.725 51.839C90.67 51.209 91.205 50.895 91.331 50.895C92.0309 50.3627 92.6653 49.7494 93.221 49.068C93.746 48.69 94.596 48.165 95.772 47.493C95.772 47.199 96.202 46.811 97.063 46.328H96.749V46.202C97.799 45.425 98.47 45.037 98.764 45.037V45.163L98.954 45.037L99.394 45.163L100.78 44.407C101.515 43.777 101.977 43.462 102.166 43.462V43.336H101.725V43.147C101.893 43.147 102.774 42.58 104.37 41.447L107.236 39.62C107.32 39.62 107.436 39.588 107.583 39.525C107.708 39.5933 107.85 39.6261 107.992 39.62C108.391 39.263 108.674 38.948 108.842 38.675C109.346 38.675 109.598 38.391 109.598 37.825H109.787V38.139H109.913C110.018 38.139 110.123 38.035 110.228 37.825L110.008 37.51C110.008 37.447 110.427 37.09 111.267 36.439H111.393L111.614 36.565C111.614 36.375 111.75 36.229 112.023 36.124C112.023 35.704 112.17 35.494 112.464 35.494C112.884 35.074 113.094 34.759 113.094 34.549C113.22 34.549 113.398 34.15 113.629 33.352C113.797 33.352 113.976 33.006 114.165 32.313C114.165 31.453 112.527 30.812 109.252 30.392C108.862 30.3844 108.472 30.3527 108.086 30.297C106.218 30.423 104.412 31.022 102.669 32.093C100.717 33.394 99.059 35.095 97.693 37.195C97.231 37.761 96.696 38.612 96.087 39.745L96.213 39.935L94.827 43.336C94.638 43.336 94.25 43.588 93.662 44.092H93.347C92.067 43 91.426 42.255 91.426 41.856C91.426 41.436 91.321 41.226 91.111 41.226C91.111 41.373 91.038 41.446 90.891 41.446H90.671C90.671 41.152 90.387 40.512 89.82 39.526C89.967 39.021 90.219 38.486 90.576 37.919C90.5077 37.7935 90.4749 37.6518 90.481 37.509C90.712 37.426 91.027 36.995 91.426 36.219L91.332 36.029C91.625 35.945 91.94 35.557 92.276 34.864C92.213 34.864 92.182 34.822 92.182 34.738L92.592 34.423L92.497 34.203V34.107L93.537 30.832L93.662 30.296C93.536 29.226 93.389 28.69 93.222 28.69C89.904 28.69 85.977 31.882 81.442 38.264C81.442 38.369 81.201 38.821 80.718 39.619L79.427 43.02L79.742 43.555L79.647 43.996C79.7105 44.1233 79.7431 44.2638 79.742 44.406L79.206 44.721H78.891C78.828 44.721 78.797 44.689 78.797 44.626C78.65 44.689 78.545 44.721 78.482 44.721C78.398 44.721 77.936 44.259 77.096 43.335C76.991 43.335 76.676 42.884 76.151 41.981C76.067 41.981 75.815 41.761 75.396 41.319C75.396 40.207 75.574 39.293 75.931 38.579C75.784 38.579 75.711 38.474 75.711 38.264C75.921 37.656 76.067 37.33 76.151 37.288L76.025 37.068V36.878C76.193 36.711 76.372 36.248 76.561 35.493C76.813 35.493 77.306 34.958 78.041 33.887C78.377 33.887 78.661 33.603 78.891 33.037L79.332 32.627L79.206 32.407C79.857 31.357 80.498 30.548 81.127 29.981C81.274 29.981 81.589 29.625 82.072 28.911L84.749 26.454H84.623C84.497 26.538 84.393 26.58 84.308 26.58V26.454C84.308 26.328 84.56 26.192 85.064 26.044C85.085 26.192 85.159 26.265 85.284 26.265C85.494 26.118 85.663 26.045 85.789 26.045V25.73H85.694C85.547 25.793 85.442 25.824 85.379 25.824V25.73C86.282 25.037 87.164 24.575 88.025 24.344H88.151V24.345ZM86.765 25.195V25.29H87.08C87.185 25.29 87.29 25.185 87.395 24.975H87.3C87.07 25.122 86.89 25.195 86.765 25.195ZM98.229 45.572H98.323C98.617 45.467 98.764 45.362 98.764 45.257H98.544C98.439 45.257 98.334 45.362 98.229 45.572ZM90.67 53.225C90.712 53.372 90.786 53.445 90.89 53.445H91.017C90.9317 53.3143 90.8878 53.161 90.891 53.005C90.744 53.025 90.67 53.099 90.67 53.225ZM87.804 55.146L87.615 55.461L87.805 55.556C87.805 55.346 87.878 55.241 88.025 55.241V55.146H87.804ZM86.229 57.886L86.324 58.106L86.135 58.201H86.009V58.107C86.03 57.96 86.104 57.886 86.229 57.886ZM83.458 60.028V60.343H83.238V60.217C83.28 60.091 83.353 60.027 83.458 60.027V60.028ZM83.048 60.563L83.238 60.658H83.584C83.038 61.603 82.65 62.128 82.419 62.233H82.293V62.138C82.377 62.012 82.419 61.907 82.419 61.823L81.883 62.358L81.757 62.138C82.261 61.34 82.691 60.815 83.048 60.563ZM83.898 62.043L84.088 62.138L84.214 61.918V61.823H84.088C83.962 61.844 83.898 61.917 83.898 62.043ZM82.513 67.775C82.6096 67.8298 82.7172 67.8622 82.828 67.87V68.09C82.639 68.09 82.429 68.195 82.198 68.405V68.09C82.198 67.985 82.303 67.88 82.513 67.775ZM130.227 22.14H131.613C134.951 22.14 137.575 23.642 139.486 26.644C140.074 27.967 140.504 29.248 140.777 30.486L140.651 31.053V31.526C140.651 31.694 140.693 31.851 140.777 31.998C140.462 33.8876 139.879 35.7225 139.045 37.447C139.045 38.181 138.499 39.305 137.407 40.817C136.736 40.942 135.927 41.52 134.982 42.549C134.269 42.864 133.334 43.399 132.179 44.155H132.305C133.271 43.861 133.849 43.714 134.038 43.714V43.934L128.589 45.792C127.14 45.792 125.639 45.247 124.085 44.155C123.477 43.567 122.742 42.528 121.881 41.037C121.881 40.932 121.45 39.851 120.59 37.793C120.506 36.869 120.39 36.407 120.243 36.407C120.243 33.615 121.713 31.327 124.652 29.542C125.723 29.059 126.731 28.712 127.676 28.502C127.676 28.418 127.707 28.376 127.77 28.376C128.757 28.586 129.418 28.975 129.754 29.542C129.754 29.688 129.943 30.077 130.321 30.707V31.053C130.321 31.494 129.901 32.04 129.062 32.691C129.208 32.712 129.282 32.785 129.282 32.911C128.694 33.205 128.19 33.751 127.77 34.549V34.769H127.896L128.495 34.423H128.936L126.51 36.155C125.65 37.058 125.104 37.95 124.873 38.832C124.873 39 125.188 39.232 125.818 39.525H126.385C127.791 39.525 129.765 38.905 132.305 37.667C134.111 36.323 135.392 34.854 136.148 33.257C136.673 32.292 137.051 30.98 137.281 29.321V28.502C136.736 27.642 135.539 26.991 133.691 26.55C132.998 26.55 132.421 26.466 131.959 26.298L129.975 26.55V26.298C130.08 26.298 130.51 26.224 131.266 26.078H133.25L133.817 26.172L133.943 25.952L133.691 25.825C133.159 25.9001 132.622 25.9421 132.085 25.951L130.321 25.384H130.101C129.939 25.383 129.778 25.4154 129.628 25.479C129.49 25.4133 129.339 25.3807 129.187 25.384L128.589 25.479C128.169 24.954 127.865 24.691 127.676 24.691C127.361 24.566 127.203 24.45 127.203 24.345C127.203 24.261 127.361 24.02 127.676 23.621C127.676 23.306 127.476 23.001 127.077 22.707C128.001 22.329 129.051 22.14 130.227 22.14ZM156.776 0C156.839 0.104638 156.872 0.224768 156.871 0.347L157.028 0.252V0.347C156.931 0.543456 156.878 0.758229 156.871 0.977H156.934L157.375 0.693L157.469 0.882C156.65 2.982 156.241 4.126 156.241 4.315H156.146L156.241 4.472L155.359 6.519H155.611C155.674 6.099 155.8 5.889 155.989 5.889C155.989 5.973 156.073 6.068 156.241 6.173C156.292 6.08593 156.324 5.98919 156.335 5.889H156.43C156.535 5.91 156.587 5.973 156.587 6.079C156.335 6.54 156.157 6.771 156.052 6.771V6.866C156.178 7.013 156.241 7.128 156.241 7.212H156.335C156.419 7.212 156.535 7.034 156.682 6.677V6.236C156.766 6.236 156.881 6.089 157.028 5.795L156.934 5.638L157.658 3.874C157.658 3.769 157.543 3.654 157.312 3.527C157.207 3.527 157.081 3.643 156.934 3.874C157.018 3.874 157.165 4.021 157.375 4.314C156.976 4.861 156.713 5.239 156.587 5.449H156.43V5.291H156.241C156.241 5.627 156.178 5.795 156.052 5.795C155.947 5.795 155.895 5.743 155.895 5.638C156.104 5.302 156.283 4.861 156.43 4.315C156.955 2.971 157.217 2.268 157.217 2.205L157.469 2.015H157.564C157.508 2.2205 157.476 2.43198 157.469 2.645C157.658 2.645 157.753 2.761 157.753 2.992L157.564 3.086L157.658 3.59H157.816C157.837 3.296 158.047 2.95 158.446 2.551C158.446 2.614 158.477 2.646 158.54 2.646C158.503 2.75469 158.445 2.85506 158.37 2.94136C158.294 3.02767 158.202 3.09822 158.099 3.149C158.099 3.212 158.131 3.244 158.194 3.244C158.035 4.05459 157.825 4.85421 157.564 5.638L157.753 5.732C157.963 4.892 158.194 4.388 158.446 4.22C158.446 4.283 158.477 4.315 158.54 4.315C158.477 4.965 158.383 5.375 158.257 5.543H158.54C158.54 5.606 158.509 5.638 158.446 5.638L158.54 6.078C157.581 8.8554 156.667 11.6485 155.8 14.456C156.262 14.456 156.493 14.476 156.493 14.519L156.682 14.456C157.798 14.4604 158.912 14.3969 160.02 14.266C160.107 14.317 160.204 14.3494 160.304 14.361C160.388 14.256 161.091 14.161 162.414 14.078C162.489 14.1301 162.575 14.1625 162.666 14.172C162.781 14.1066 162.912 14.0741 163.044 14.078C163.044 14.204 163.096 14.267 163.201 14.267C163.222 14.141 163.285 14.077 163.39 14.077H164.177L164.618 14.015C164.618 14.057 164.65 14.078 164.713 14.078C164.713 13.994 165.238 13.878 166.288 13.731V13.826L168.492 13.48C168.597 13.5427 168.717 13.5752 168.839 13.574C168.86 13.448 168.923 13.385 169.028 13.385H169.122C169.248 13.385 169.364 13.417 169.468 13.48C169.573 13.417 169.693 13.3841 169.815 13.385L170.004 13.48C170.004 13.396 170.088 13.301 170.256 13.196C170.331 13.2485 170.417 13.2812 170.508 13.291C170.529 13.186 170.592 13.133 170.697 13.133H170.949L170.886 13.291H171.138C171.138 13.123 171.757 12.944 172.996 12.755C173.1 12.818 173.22 12.8509 173.342 12.85C173.531 12.85 173.794 12.734 174.13 12.503C174.13 12.629 174.214 12.693 174.382 12.693C174.55 12.693 174.76 12.598 175.011 12.409C175.137 12.409 175.253 12.44 175.358 12.503C175.445 12.4524 175.541 12.4204 175.641 12.409L175.799 12.503C176.303 12.23 176.891 12.031 177.562 11.905C177.562 11.842 177.625 11.81 177.751 11.81C177.772 11.915 177.825 11.968 177.909 11.968C178.098 11.968 178.486 11.852 179.074 11.621C179.179 11.684 179.299 11.7169 179.421 11.716H179.61V11.621C179.558 11.5464 179.525 11.4597 179.515 11.369H179.61C179.732 11.3681 179.852 11.401 179.956 11.464L183.042 10.645H183.137L183.042 10.488V10.393C183.147 10.414 183.2 10.477 183.2 10.583L183.389 10.488L183.578 10.582C184.871 10.1589 186.185 9.8018 187.515 9.512H187.798V9.259H188.145C188.732 9.154 189.026 9.029 189.026 8.881L189.278 9.071C189.593 8.902 190.066 8.724 190.696 8.535V8.44L191.136 8.535C192.123 8.178 192.89 7.979 193.436 7.937C193.436 7.874 193.499 7.842 193.625 7.842L193.782 7.937L194.664 7.559H194.853L195.105 7.748H195.199L195.105 7.558C195.418 7.45405 195.715 7.30589 195.987 7.118H196.239C196.239 7.034 196.333 6.95 196.522 6.866C196.522 6.95 196.606 7.034 196.774 7.118C196.774 7.013 196.868 6.96 197.057 6.96L197.498 7.055C197.498 6.929 197.551 6.865 197.656 6.865C197.743 6.91636 197.839 6.94875 197.939 6.96L198.38 6.614H198.443L198.38 6.771V6.866H198.443C199.43 6.551 200.081 6.288 200.396 6.078L200.837 6.173C200.858 6.047 200.921 5.984 201.026 5.984L201.183 6.078H201.278V5.984H201.089V5.795L201.718 5.889H201.813L201.718 5.732V5.638L202.506 5.354V5.449L202.411 5.638H202.852C203.041 5.47 203.776 5.26 205.057 5.008C205.078 4.924 205.844 4.693 207.356 4.315C207.377 4.189 207.44 4.125 207.545 4.125L207.702 4.22C207.996 4.094 209.12 3.8 211.072 3.338C211.072 3.275 211.093 3.244 211.135 3.244H211.86L212.301 3.338V2.992C212.385 2.992 212.731 2.898 213.34 2.709H213.686V2.803L213.623 2.992H213.686C214.421 2.762 214.894 2.646 215.104 2.646V2.709C215.041 2.877 213.959 3.202 211.86 3.685L205.498 5.449V5.638H205.592C206.138 5.448 206.464 5.354 206.569 5.354V5.449L206.915 5.291C206.995 5.32698 207.08 5.34832 207.167 5.354C207.461 5.207 207.608 5.092 207.608 5.008L208.049 5.102C208.343 4.872 208.553 4.756 208.679 4.756L209.12 4.85C209.141 4.724 209.204 4.661 209.309 4.661L209.466 4.756C209.466 4.566 209.854 4.42 210.631 4.315H210.789V4.567H211.072L210.978 4.126H211.513L212.017 3.779H212.112L212.301 3.874C212.322 3.748 212.374 3.684 212.458 3.684H212.552C212.552 3.832 212.615 3.979 212.741 4.126L212.458 4.472C212.521 4.472 212.552 4.504 212.552 4.567H212.458C212.353 4.567 212.301 4.483 212.301 4.315C212.175 4.335 212.112 4.388 212.112 4.472C212.238 4.535 212.332 4.567 212.395 4.567C212.395 4.777 211.975 4.892 211.135 4.913C211.187 4.83837 211.22 4.75168 211.23 4.661H211.135C211.051 4.724 210.883 4.756 210.631 4.756C210.631 4.861 210.715 4.913 210.883 4.913V5.103L210.442 5.197L210.348 5.007C210.348 4.945 210.379 4.913 210.442 4.913L210.348 4.756V4.661H210.631V4.567C210.531 4.55534 210.435 4.52298 210.348 4.472C210.175 4.59984 209.965 4.66667 209.75 4.662V4.85C209.875 4.85 210.043 4.934 210.253 5.102H210.348L210.19 5.354C210.225 5.44509 210.246 5.54077 210.253 5.638C209.582 5.805 209.141 5.952 208.931 6.078C208.826 6.078 208.773 6.015 208.773 5.889C209.655 5.617 210.096 5.439 210.096 5.354H209.75V5.197H209.907V5.007H209.812C209.435 5.427 209.025 5.637 208.584 5.637C208.533 5.55024 208.501 5.45385 208.49 5.354H208.427L208.143 5.543L207.986 5.449L207.891 5.638H208.143V5.795C207.094 6.11 206.569 6.32 206.569 6.425H206.663L207.261 6.33V6.425C207.261 6.53 206.789 6.708 205.844 6.96C205.844 7.023 205.792 7.055 205.687 7.055C205.498 7.055 205.403 6.929 205.403 6.677H205.246C204.994 7.097 204.752 7.307 204.521 7.307V7.212C204.291 7.338 204.091 7.402 203.923 7.402V7.212C204.364 7.107 204.626 7.055 204.71 7.055L204.616 6.865C201.383 7.748 199.745 8.252 199.703 8.378C201.015 8.09874 202.308 7.7411 203.577 7.307C203.577 7.37 203.839 7.548 204.364 7.842C204.154 7.947 203.797 8.062 203.293 8.189V8.094L203.136 8.189H202.789C202.873 7.979 203.251 7.863 203.923 7.842C203.923 7.716 203.86 7.653 203.734 7.653H203.293C202.747 7.843 202.401 7.937 202.254 7.937H202.065C202.065 8.126 201.593 8.294 200.648 8.441C200.648 8.566 200.48 8.629 200.144 8.629L200.207 8.819C200.48 8.692 200.868 8.629 201.372 8.629H201.53C201.53 8.399 201.708 8.283 202.065 8.283H202.506V8.441H202.348C202.159 8.441 201.802 8.566 201.278 8.818C200.816 8.818 200.081 9.049 199.073 9.511C198.485 9.511 198.191 9.595 198.191 9.763C198.111 9.72706 198.026 9.70572 197.939 9.7L197.561 9.858C197.561 9.753 197.509 9.7 197.404 9.7C197.404 9.91 197.078 10.057 196.427 10.141L196.239 10.047H196.176V10.141H196.333C196.333 10.246 196.281 10.299 196.176 10.299L195.735 10.204C195.714 10.288 195.42 10.467 194.853 10.74C194.853 10.677 194.821 10.645 194.758 10.645C194.707 10.7321 194.675 10.8288 194.664 10.929H194.569C194.569 10.803 194.538 10.739 194.475 10.739L194.317 10.834L194.128 10.74C194.065 10.74 193.918 10.887 193.687 11.18C193.687 11.076 193.635 11.023 193.53 11.023H193.247C193.016 11.191 192.491 11.359 191.672 11.527C191.609 11.296 191.493 11.18 191.325 11.18C191.238 11.231 191.142 11.2633 191.042 11.275V11.37C191.294 11.37 191.42 11.422 191.42 11.527C191.063 11.674 190.885 11.8 190.885 11.905H190.979L190.885 12.062V12.157C192.984 11.632 194.653 11.128 195.892 10.645C195.955 10.645 195.987 10.677 195.987 10.74C196.448 10.509 196.774 10.393 196.963 10.393L197.12 10.488C197.12 10.362 198.128 10.036 200.144 9.511C207.031 7.517 211.02 6.404 212.112 6.173V6.33L201.907 9.26C201.068 9.49 200.595 9.658 200.49 9.763C200.217 9.763 198.779 10.152 196.176 10.928C195.987 11.034 194.863 11.359 192.806 11.905C192.722 11.905 192.428 12.041 191.924 12.315C191.845 12.2787 191.759 12.257 191.672 12.251C191.62 12.3256 191.587 12.4123 191.577 12.503L191.136 12.409H191.042V12.503H191.231V12.693C189.761 12.965 188.942 13.228 188.774 13.48C188.687 13.429 188.591 13.3967 188.491 13.385C188.26 13.595 187.263 13.92 185.499 14.361C185.499 14.424 185.468 14.456 185.405 14.456C185.33 14.4035 185.244 14.3708 185.153 14.361L185.058 14.519L184.617 14.456C184.428 14.456 184.229 14.571 184.019 14.802C183.932 14.7513 183.835 14.7193 183.735 14.708L183.641 14.897L183.483 14.802H183.294C183.294 14.97 183.242 15.054 183.137 15.054H182.948L182.507 14.96C182.507 15.086 182.36 15.212 182.066 15.338L181.531 15.243C180.754 15.768 177.353 16.587 171.327 17.7C169.857 17.994 167.946 18.288 165.595 18.582V18.487C162.172 19.033 158.582 19.306 154.824 19.306H154.666C154.456 19.516 153.868 21.594 152.903 25.542C150.068 34.465 147.801 40.691 146.1 44.218C145.953 44.743 145.575 45.247 144.966 45.73H144.777C144.189 45.73 143.895 45.667 143.895 45.54L143.738 45.635H143.643L142.069 45.037C141.972 45.0436 141.876 45.0648 141.785 45.1C141.365 45.1 140.956 44.806 140.557 44.218C141.964 41.258 142.992 38.853 143.643 37.006L145.218 32.849C145.218 32.701 145.543 31.799 146.194 30.14C147.013 27.683 147.864 24.712 148.745 21.227C148.85 21.227 149.092 20.555 149.47 19.212C146.635 18.729 144.756 18.141 143.832 17.448C143.538 17.448 142.74 16.86 141.439 15.684V15.401H141.628V15.243C141.334 14.803 141.155 14.246 141.092 13.574C141.029 13.574 140.998 13.542 140.998 13.48L141.092 13.29C141.029 13.1855 140.997 13.0658 140.998 12.944H141.092L140.998 12.755V12.692C141.061 11.81 141.239 11.369 141.533 11.369L145.659 13.291L148.304 14.015L148.493 13.92C148.829 14.025 149.564 14.172 150.698 14.361C150.992 13.606 151.286 12.661 151.58 11.527C151.969 9.94204 152.463 8.38489 153.06 6.866C153.144 6.404 153.291 6.173 153.501 6.173C153.501 6.11 153.48 6.078 153.438 6.078C153.438 5.512 153.669 5.008 154.131 4.567L154.036 4.409C154.435 4.115 154.698 3.969 154.824 3.969C154.824 3.779 154.803 3.685 154.761 3.685C154.761 3.559 154.845 3.212 155.013 2.645H155.454C155.832 1.449 156.272 0.567 156.776 0ZM157.564 1.48H157.753V1.764H157.375V1.669C157.396 1.543 157.459 1.48 157.564 1.48ZM216.269 1.921V2.111C215.849 2.215 215.607 2.268 215.544 2.268L215.45 2.11C215.706 1.98791 215.985 1.92339 216.269 1.921ZM216.71 2.205H216.962V2.362H216.521C216.542 2.257 216.605 2.205 216.71 2.205ZM216.426 2.362C216.426 2.509 216.08 2.625 215.387 2.709L215.292 2.551C215.88 2.425 216.258 2.362 216.426 2.362ZM217.655 2.457H217.844C217.844 2.604 217.581 2.687 217.056 2.709V2.551L217.655 2.457ZM212.552 3.149V3.244H212.647C213.109 3.181 213.34 3.097 213.34 2.992H213.245C213.203 2.992 212.972 3.045 212.552 3.149ZM215.985 2.898V3.086L215.828 2.992C215.828 3.097 215.765 3.149 215.639 3.149H215.544C215.439 3.149 215.387 3.097 215.387 2.992L215.985 2.898ZM215.387 3.086L215.198 3.338C215.25 3.41265 215.283 3.49938 215.292 3.59H215.198L214.946 3.433H214.663L214.757 3.59V3.685H214.568C214.484 3.685 214.4 3.601 214.316 3.433C214.442 3.307 214.799 3.191 215.387 3.086ZM214.064 3.338L214.222 3.779L213.97 3.969H213.875C213.749 3.969 213.686 3.905 213.686 3.779H214.064V3.685H213.686C213.686 3.811 213.634 3.874 213.529 3.874C213.403 3.874 213.34 3.811 213.34 3.684C213.34 3.58 213.581 3.464 214.064 3.338ZM212.741 3.685H213.182C213.182 3.915 213.235 4.031 213.34 4.031H214.064V4.126C214.064 4.252 213.791 4.346 213.245 4.409V4.315L213.34 4.125C213.025 4.125 212.825 4.01 212.741 3.779V3.685ZM212.301 3.968L212.206 4.126V4.22C212.311 4.15744 212.43 4.12491 212.552 4.126V4.031C212.465 4.02529 212.38 4.00395 212.301 3.968ZM156.871 4.031L156.776 4.472C156.86 4.472 156.976 4.357 157.123 4.126L156.934 4.031H156.871ZM211.324 4.315V4.472C211.45 4.472 211.513 4.535 211.513 4.662H211.765C211.891 4.662 211.954 4.598 211.954 4.472C211.828 4.472 211.765 4.42 211.765 4.315H212.017V4.125C211.849 4.252 211.618 4.315 211.324 4.315ZM213.182 4.567H213.34V4.756H212.993C213.014 4.63 213.077 4.567 213.182 4.567ZM156.587 4.756C156.587 4.84 156.535 4.956 156.43 5.102V5.197C156.514 5.197 156.629 5.081 156.776 4.85L156.587 4.756ZM207.356 5.449C207.419 5.449 207.503 5.48 207.608 5.543H207.702V5.449C207.597 5.449 207.545 5.396 207.545 5.291C207.419 5.312 207.356 5.365 207.356 5.449ZM202.852 5.291H202.947V5.354C202.947 5.48 202.894 5.543 202.789 5.543L202.695 5.354L202.852 5.291ZM204.962 5.638C205.025 5.74235 205.058 5.86211 205.057 5.984H205.151C205.151 5.879 205.235 5.732 205.403 5.543H205.246C205.159 5.59403 205.062 5.62639 204.962 5.638ZM207.01 5.543L207.104 5.732C207.179 5.67988 207.265 5.64754 207.356 5.638V5.543H207.01ZM207.545 5.795H207.608C207.734 5.795 207.797 5.743 207.797 5.638H207.702C207.597 5.658 207.545 5.711 207.545 5.795ZM211.419 5.543H211.671V5.732H211.419V5.543ZM157.217 6.677C157.385 6.677 157.532 6.383 157.658 5.795H157.564C157.396 5.795 157.28 6.089 157.217 6.677ZM203.64 6.173L204.71 5.889V5.795H204.616C203.965 5.879 203.64 6.005 203.64 6.173ZM206.569 6.078H206.726C206.813 6.02732 206.91 5.99531 207.01 5.984V5.889H206.726C206.621 5.91 206.569 5.972 206.569 6.078ZM210.789 5.795L210.883 5.984L210.631 6.173H210.001C210.001 6.068 210.264 5.942 210.789 5.795ZM208.238 5.984H208.584C208.584 6.11 208.532 6.173 208.427 6.173H208.238V5.984ZM202.852 6.236V6.425H202.947L203.136 6.33C203.24 6.39301 203.36 6.42589 203.482 6.425H203.577C203.577 6.341 203.461 6.257 203.23 6.173C203.23 6.215 203.199 6.236 203.136 6.236V6.173C203.045 6.20769 202.949 6.22891 202.852 6.236ZM209.214 6.173H209.309C209.414 6.173 209.466 6.225 209.466 6.33V6.425H209.214V6.173ZM197.404 7.843V7.937H197.656C197.866 7.811 198.254 7.685 198.821 7.559C198.821 7.643 198.905 7.737 199.073 7.842H199.167C199.041 7.695 198.979 7.601 198.979 7.559C199.167 7.454 199.346 7.401 199.514 7.401L199.955 7.496L199.86 7.306L202.6 6.519V6.33L197.404 7.842V7.843ZM208.332 6.425H208.679C208.679 6.551 208.616 6.614 208.49 6.614H208.332V6.425ZM203.577 6.614V6.771C203.766 6.771 203.913 6.803 204.018 6.866V6.676L203.577 6.614ZM153.155 7.054V7.496H153.249L153.344 7.055L153.155 7.054ZM202.506 7.054C202.527 7.16 202.59 7.212 202.695 7.212H202.789C202.789 7.107 202.726 7.055 202.6 7.055L202.506 7.054ZM196.868 7.118V7.212H197.215V7.118H196.868ZM205.939 7.118H206.222C206.222 7.244 206.159 7.307 206.033 7.307H205.939V7.118ZM156.146 7.496V7.653C156.233 7.60232 156.33 7.57031 156.43 7.559V7.307H156.335C156.209 7.327 156.146 7.391 156.146 7.496ZM155.107 7.401V7.653C155.212 7.653 155.265 7.601 155.265 7.496V7.401H155.107ZM205.498 7.307V7.496L205.057 7.559C205.057 7.433 205.204 7.349 205.498 7.307ZM204.458 7.559H204.899V7.748C204.689 7.811 204.563 7.842 204.521 7.842L204.458 7.653V7.559ZM195.892 8.283V8.378H196.081C196.186 8.378 196.364 8.315 196.616 8.188C196.691 8.24048 196.777 8.27317 196.868 8.283L196.963 8.094H196.774C196.627 8.094 196.333 8.157 195.892 8.283ZM193.089 8.189V8.283H193.436V8.189H193.089ZM194.853 8.724H195.105L195.357 8.535C195.444 8.58574 195.54 8.61776 195.64 8.629L195.735 8.441C195.609 8.441 195.546 8.42 195.546 8.378C195.084 8.503 194.853 8.619 194.853 8.724ZM198.443 8.818H198.538C198.664 8.818 198.727 8.755 198.727 8.629H198.632C198.506 8.65 198.443 8.712 198.443 8.818ZM199.608 8.818C199.608 8.755 199.577 8.724 199.514 8.724C199.514 8.829 198.895 9.028 197.656 9.322V9.512H197.939C198.086 9.406 198.79 9.175 200.049 8.818V8.629H199.86L199.608 8.818ZM195.451 9.606H195.735V9.416H195.64C195.514 9.438 195.451 9.501 195.451 9.606ZM196.427 9.606V9.763L197.309 9.7V9.607C197.218 9.59717 197.132 9.56448 197.057 9.512C196.852 9.57136 196.64 9.60331 196.427 9.607V9.606ZM155.265 9.7V9.952H155.548V9.7H155.265ZM194.128 10.299V10.393H194.317C194.527 10.393 195.168 10.215 196.239 9.858V9.763H195.987C195.651 9.953 195.031 10.131 194.128 10.299ZM193.971 10.047H194.128C194.215 9.99597 194.312 9.96362 194.412 9.952V9.858H194.128C194.023 9.878 193.971 9.942 193.971 10.047ZM191.924 10.582V10.74L192.554 10.645L192.459 10.488L191.924 10.582ZM191.483 10.645V10.74H191.861L191.766 10.582C191.675 10.6167 191.58 10.6379 191.483 10.645ZM193.341 10.74H193.53C193.635 10.74 193.687 10.687 193.687 10.582H193.53C193.404 10.582 193.341 10.635 193.341 10.74ZM192.302 10.834V11.023C192.491 11.023 192.638 11.044 192.743 11.086C192.743 10.918 192.911 10.834 193.247 10.834V10.645H193.184C192.764 10.771 192.47 10.834 192.302 10.834ZM190.255 11.023V11.086H190.601C190.727 11.086 190.79 11.034 190.79 10.929C190.727 10.929 190.696 10.897 190.696 10.834C190.507 10.96 190.36 11.023 190.255 11.023ZM191.672 11.086V11.181C191.794 11.1819 191.914 11.149 192.018 11.086L192.207 11.181H192.302V11.086C192.113 11.086 192.018 11.002 192.018 10.834C191.787 10.918 191.672 11.002 191.672 11.086ZM189.026 11.81V11.905H189.121L190.255 11.621C190.381 11.684 190.475 11.716 190.538 11.716V11.81C190.538 11.915 190.475 11.968 190.349 11.968C190.231 11.9693 190.113 11.948 190.003 11.905L189.467 12.157L189.278 12.062C189.278 12.146 189.131 12.262 188.837 12.409H188.68L188.491 12.314C188.491 12.44 188.344 12.504 188.05 12.504L188.145 12.692L187.956 12.755C187.956 12.65 187.903 12.598 187.798 12.598C187.711 12.6486 187.615 12.6806 187.515 12.692C187.641 12.839 187.704 12.955 187.704 13.039H187.893L187.798 12.849V12.755L188.239 12.85C188.344 12.85 188.396 12.797 188.396 12.692L188.585 12.755H188.774L188.68 12.598L188.837 12.503C188.858 12.629 188.921 12.693 189.026 12.693H189.215L189.121 12.503L189.278 12.409V12.598C190.034 12.451 190.538 12.241 190.79 11.968L190.696 11.81L190.979 11.37H190.538V11.621H190.444V11.369L189.026 11.81ZM187.515 12.314H187.893C187.998 12.314 188.05 12.262 188.05 12.157H187.704C187.578 12.177 187.515 12.23 187.515 12.314ZM185.247 12.85V12.944H185.594V12.755H185.499C185.424 12.8075 185.338 12.8402 185.247 12.85ZM187.263 12.85V12.944C187.284 13.07 187.347 13.134 187.452 13.134H187.515V12.85H187.263ZM186.57 12.944C186.571 13.0662 186.538 13.1863 186.475 13.291H186.727V13.133L186.916 13.196H187.168V13.133C187.168 13.007 187.116 12.944 187.011 12.944H186.57ZM186.129 13.134C186.129 13.238 186.066 13.291 185.94 13.291C185.961 13.417 186.024 13.48 186.129 13.48H186.286V13.385L186.192 13.196C186.255 13.196 186.286 13.176 186.286 13.133H186.129V13.134ZM183.137 13.921L183.2 14.078C183.125 14.1301 183.039 14.1625 182.948 14.172C182.969 14.298 183.032 14.362 183.137 14.362C183.767 14.109 184.176 13.899 184.365 13.732C184.512 13.732 184.68 13.795 184.869 13.92L184.964 13.731C184.901 13.731 184.869 13.7 184.869 13.637L185.31 13.732L185.845 13.574C185.845 13.448 185.793 13.385 185.688 13.385H185.594L185.31 13.574C185.31 13.448 185.289 13.385 185.247 13.385C185.16 13.436 185.064 13.4683 184.964 13.48V13.385C184.04 13.742 183.431 13.92 183.137 13.92V13.921ZM181.972 14.361C181.993 14.466 182.056 14.519 182.161 14.519C182.581 14.519 182.812 14.435 182.854 14.267L182.413 14.172V14.362H182.318V14.172H182.161C182.035 14.193 181.972 14.256 181.972 14.362V14.361ZM181.279 14.456V14.519L181.814 14.613C181.814 14.529 181.72 14.445 181.531 14.361C181.456 14.4135 181.37 14.4462 181.279 14.456ZM159.8 21.762H160.02C160.02 22.056 160.062 22.203 160.146 22.203L160.02 22.739V23.809C160.02 23.894 159.989 23.936 159.926 23.936L160.02 24.156L159.926 24.691H160.241C160.311 24.0559 160.459 23.4319 160.682 22.833H161.217C161.238 22.707 161.312 22.644 161.437 22.644L161.878 22.959L161.973 22.519H162.193V23.274C162.319 23.274 162.466 22.917 162.634 22.204H162.949C162.949 22.497 163.023 22.644 163.17 22.644V23.494C163.17 23.558 163.128 23.589 163.044 23.589C163.128 23.715 163.17 23.936 163.17 24.251H163.264V23.715H163.485V24.156C163.338 24.534 163.191 25.93 163.044 28.345C162.897 28.828 162.54 31.274 161.973 35.683C161.91 35.683 161.878 35.798 161.878 36.029L161.973 36.219C161.826 36.617 161.354 39.504 160.556 44.879C160.472 44.879 160.188 45.163 159.705 45.729C157.543 45.583 156.461 45.362 156.461 45.069L155.706 45.194C154.488 45.026 153.879 44.774 153.879 44.438V43.903C154.236 43.903 155.065 40.155 156.367 32.66C156.472 31.61 156.619 30.896 156.808 30.518L156.682 30.298C156.829 29.458 157.228 27.841 157.879 25.448C157.879 25.09 157.91 24.912 157.973 24.912L157.879 24.692C158.068 24.188 158.215 23.936 158.32 23.936C158.32 23.999 158.351 24.03 158.414 24.03C158.582 23.17 158.792 22.518 159.044 22.078L159.264 22.203H159.39C159.39 22.057 159.422 21.983 159.485 21.983H159.8V21.762ZM188.554 15.527H188.648V15.81L188.554 16.03C188.68 16.052 188.743 16.125 188.743 16.251L188.176 17.259V17.385H188.271C188.271 17.175 188.459 16.933 188.837 16.661V16.755C188.816 16.881 188.501 17.395 187.893 18.298V18.424C188.459 18.067 188.743 17.784 188.743 17.574H188.837V17.7C188.837 18.057 188.585 18.435 188.082 18.834L187.893 18.708L187.767 18.928V19.023H188.082L187.987 19.243C188.071 19.243 188.166 19.348 188.271 19.558V19.652L187.767 20.472V20.597H187.987V20.692C187.987 20.797 187.882 20.902 187.672 21.007C187.672 20.86 187.609 20.787 187.483 20.787L187.294 21.417H187.389L187.767 21.101H187.893C187.893 21.206 187.756 21.343 187.483 21.511L187.578 21.731C187.578 21.836 187.326 22.078 186.822 22.455C187.137 22.476 187.294 22.581 187.294 22.77C186.832 23.631 186.412 24.146 186.034 24.313C185.782 24.65 185.594 24.817 185.468 24.817V25.037H185.656V24.817C185.782 24.817 185.845 24.922 185.845 25.132H185.94L187.105 23.589H187.2C186.675 24.66 185.646 26.214 184.113 28.25H184.019V28.156L184.428 27.432H184.334L183.168 28.439C183.126 28.649 182.969 28.933 182.696 29.289L182.885 29.384H182.979L183.83 28.439L183.924 28.659C182.833 30.402 182.192 31.641 182.003 32.376C181.94 32.376 181.531 33.037 180.775 34.36C179.599 35.515 178.539 36.89 177.594 38.486C177.09 39.368 176.576 40.439 176.051 41.698C174.959 43.945 174.35 45.152 174.224 45.32L173.563 45.95C173.479 45.95 173.437 45.918 173.437 45.855L173.248 45.95C172.912 45.698 172.208 45.457 171.138 45.226C171.138 45.142 170.886 45.006 170.382 44.816L170.193 44.911C169.101 44.638 168.555 44.05 168.555 43.147C168.156 41.32 167.642 38.182 167.012 33.73C166.634 32.324 166.12 29.909 165.469 26.487H165.374C165.374 25.667 165.731 25.258 166.445 25.258C167.537 25.258 168.786 25.836 170.193 26.991C170.424 26.991 170.676 27.201 170.949 27.621C170.949 27.683 170.917 27.715 170.854 27.715C171.043 28.261 171.652 30.959 172.681 35.809H172.586C172.712 36.229 172.775 36.502 172.775 36.628H172.87L179.326 26.896C179.326 26.854 180.344 25.342 182.381 22.361C182.381 22.235 183.221 21.059 184.901 18.834C184.901 18.561 185.541 17.7 186.822 16.251C187.011 16.251 187.326 16.178 187.767 16.031L187.987 16.125C187.987 16.062 188.176 15.863 188.554 15.527ZM187.294 19.022V19.243H187.483C187.483 19.075 187.546 18.897 187.672 18.708V18.613C187.588 18.613 187.462 18.749 187.294 19.022ZM186.633 23.274L186.538 23.494V23.589H186.633C186.633 23.505 186.664 23.4 186.727 23.274H186.633ZM197.719 22.014C200.217 22.014 202.401 23.012 204.27 25.006C204.647 25.909 204.941 26.991 205.151 28.25C205.151 28.313 205.12 28.345 205.057 28.345L205.151 28.975V29.731C205.151 30.843 204.238 32.229 202.411 33.888C198.926 36.008 196.595 37.068 195.42 37.068C195.273 37.006 195.168 36.974 195.105 36.974C195.105 37.1 195.031 37.164 194.884 37.164C194.8 37.164 194.758 37.132 194.758 37.069L194.223 37.163H193.876C193.771 37.163 193.666 37.069 193.562 36.88L193.656 36.69C193.362 36.334 193.11 36.155 192.9 36.155C191.451 34.854 190.727 33.825 190.727 33.069L190.948 32.974H192.585C194.517 32.597 196.879 31.452 199.671 29.542C200.91 28.302 201.53 27.515 201.53 27.18L200.018 26.896H198.695C196.742 27.064 194.191 28.25 191.042 30.455C189.425 31.883 188.407 33.573 187.987 35.525C188.68 37.289 191.556 39.042 196.616 40.785C198.149 41.268 200.123 41.782 202.537 42.328L202.632 42.518C202.485 42.538 202.411 42.591 202.411 42.675L202.632 42.769C202.779 42.769 202.852 42.685 202.852 42.517H203.388V42.675H203.073V42.864H203.293C204.091 42.864 204.49 43.021 204.49 43.336C204.49 43.504 204.637 43.588 204.931 43.588V43.871C204.931 43.997 204.857 44.061 204.71 44.061H204.175C203.608 44.061 202.695 43.934 201.435 43.682V43.872H201.75V44.06H201.435C201.246 43.934 201.099 43.871 200.994 43.871V43.682H201.215V43.588H200.9L200.553 43.777H200.459C199.913 43.777 199.619 43.682 199.577 43.493H200.112C200.112 43.388 200.039 43.336 199.892 43.336H199.577C199.577 43.441 199.43 43.493 199.136 43.493V43.588C199.346 43.588 199.745 43.745 200.333 44.06L200.679 43.871H200.774V43.966L200.679 44.155H200.774C200.882 44.1017 201 44.0695 201.12 44.06L203.388 44.785C203.682 44.785 203.829 44.837 203.829 44.942H203.608L202.317 44.879H202.191V44.942C202.254 44.942 202.474 44.974 202.852 45.037V45.131C202.852 45.215 202.674 45.341 202.317 45.509C202.128 45.383 201.981 45.32 201.876 45.32L201.656 45.415C201.089 45.163 200.721 45.037 200.553 45.037H200.459L201.435 45.604C201.141 45.604 200.994 45.751 200.994 46.044H200.333C199.745 46.044 199.272 45.919 198.916 45.667C196.438 45.057 193.813 44.092 191.042 42.769C189.173 41.467 187.893 40.323 187.2 39.336C186.339 38.496 185.646 36.47 185.121 33.258L185.027 32.156C185.174 30.749 185.426 29.72 185.782 29.069C186.265 28.166 187.074 27.295 188.208 26.455C188.208 26.14 188.858 25.657 190.16 25.006C191.21 24.398 191.976 23.852 192.459 23.369C194.328 22.466 196.081 22.014 197.719 22.014ZM204.27 30.612C204.27 30.717 204.018 31.116 203.514 31.809H203.608C203.965 31.809 204.259 31.41 204.49 30.612H204.27ZM203.388 31.904C203.22 32.429 202.096 33.331 200.018 34.612C197.834 35.704 196.669 36.25 196.522 36.25V36.344H196.837C200.07 35.358 202.369 33.909 203.734 31.998L203.514 31.904H203.388ZM198.695 43.494H199.041V43.336H198.916C198.769 43.336 198.695 43.39 198.695 43.494ZM202.758 44.154H203.073V44.312H202.758V44.154ZM198.821 44.69V44.88C198.884 44.88 198.989 44.9 199.136 44.942L199.23 44.785C199.088 44.7859 198.948 44.7534 198.821 44.69ZM199.797 45.51C199.965 45.51 200.112 45.54 200.238 45.604L200.333 45.414L200.112 45.32H200.018C199.871 45.341 199.797 45.404 199.797 45.51Z" fill="#C62314"/>
</svg>
