<svg width="293" height="91" viewBox="0 0 293 91" fill="none" xmlns="http://www.w3.org/2000/svg">
<path d="M32.4032 20.1382V20.3891C32.2621 20.3891 32.0504 20.5 31.7681 20.7219C31.5985 20.7219 31.4005 20.8474 31.1751 21.0982H31.0476V20.8474C30.7928 21.0982 30.5958 21.2227 30.4546 21.2227L30.582 21.4726C28.803 22.7231 27.8003 23.3493 27.5738 23.3493L27.7013 23.5992C27.6728 23.7661 27.4758 23.9186 27.1082 24.0575V23.9321L27.1935 23.7236H26.9818L26.7269 23.8076C26.8406 24.1414 26.9671 24.3074 27.1092 24.3074H27.1935C27.9277 23.8346 28.3795 23.5992 28.5481 23.5992V23.7246C28.012 24.5023 27.4052 24.8921 26.7269 24.8921C26.7563 25.0581 26.8406 25.142 26.9818 25.142C27.1229 25.142 27.518 24.9751 28.1678 24.6412L28.2952 24.8921L26.3888 26.3095L26.4731 26.5594C26.4731 26.6424 26.1623 26.9627 25.5419 27.5185H25.6262L26.1339 27.3931C26.2751 27.477 26.4309 27.5185 26.6005 27.5185C26.6889 27.3663 26.733 27.193 26.7279 27.0177H27.1082V27.1432L26.8534 27.5185V27.6015H27.32V27.8523C26.7554 27.9633 24.2284 29.7001 19.7382 33.0636C16.2938 36.0383 13.413 38.8876 11.0978 41.6114C7.8788 45.5027 6.26834 49.2551 6.26834 52.8686L6.39576 53.3278C6.39576 53.4108 6.35362 53.4533 6.26834 53.4533C6.63591 55.8153 7.03093 56.9963 7.45437 56.9963C8.64041 56.9963 10.8576 55.3425 14.105 52.0349C15.7713 49.533 16.6045 47.9072 16.6045 47.1565V42.7789L17.3239 41.9452C17.2486 41.518 17.206 41.0858 17.1965 40.6523L17.4514 40.5269C17.5357 40.5269 17.5788 40.5684 17.5788 40.6523L17.8327 40.5269L18.2983 40.6523L18.8913 40.3185H19.1461C20.1057 40.9022 20.585 41.2496 20.585 41.3605C21.5741 42.0002 22.1387 42.4315 22.2798 42.6535L22.8728 42.5705C23.1835 42.5705 23.4237 43.1542 23.5933 44.3217L23.4658 44.8215C23.4658 45.2943 23.4237 46.5872 23.3384 48.6993C23.6776 51.1453 24.2 53.3973 24.9067 55.4534C24.7646 55.5374 24.6519 55.5789 24.5666 55.5789C24.6803 55.9127 24.8773 56.0796 25.1596 56.0796V56.4125C24.99 56.4125 24.9057 56.455 24.9057 56.538C25.1037 57.0937 25.3439 57.6495 25.6262 58.2053L25.4145 58.3307C25.1037 57.6919 24.9057 57.3716 24.8214 57.3716H24.694C24.694 57.5385 25.089 58.3722 25.8801 59.8735V59.9575C25.8801 60.5132 25.2449 60.7911 23.9736 60.7911C23.9736 60.958 23.6913 61.041 23.1267 61.041C22.0818 60.8191 21.2771 60.3048 20.7125 59.4982C20.2616 58.9984 19.6539 57.8579 18.8913 56.0796C15.39 59.3872 12.8631 61.041 11.3095 61.041H9.86859C9.05013 61.041 8.09052 60.6802 6.98878 59.9575C3.91097 58.845 1.97705 57.4691 1.18603 55.8288C0.649868 54.3834 0.381295 53.077 0.381295 51.9095C0.437166 51.9095 0.465592 51.868 0.465592 51.784C0.35287 51.784 0.197999 51.5071 0 50.9514C0.169574 47.8377 0.564592 46.1 1.18603 45.7391H1.56733C1.79277 45.2943 1.90648 44.9884 1.90648 44.8225L1.69377 44.9055C1.58105 44.9055 1.45461 44.7935 1.31346 44.5716C1.56733 44.5716 1.93392 43.9319 2.41422 42.6535C2.52694 42.6535 2.76709 42.3476 3.13466 41.7368L3.38853 41.8198C3.52968 41.8198 4.53242 40.5269 6.39576 37.942V37.8166C5.80275 38.5113 5.39303 38.8586 5.16758 38.8586L5.04016 38.6512C8.17482 34.7319 11.6761 31.3683 15.5449 28.5605C16.7315 27.6233 17.9765 26.76 19.2726 25.9757C19.3569 26.1146 19.4 26.2265 19.4 26.3095L19.1451 26.7678L20.2469 26.0586H20.4586V26.3095H20.586V26.0586C20.5007 26.0586 20.4586 26.0316 20.4586 25.9757L22.7454 24.4328C23.4805 23.8771 24.4117 23.4043 25.5409 23.0145V22.89H25.4135C24.8773 23.1119 24.5529 23.2238 24.4401 23.2238V22.7655C24.9204 22.7655 25.5693 22.4037 26.3888 21.681H26.6005V22.0564L26.4731 22.2648H26.6005C26.9671 22.0428 27.2494 21.9309 27.4474 21.9309L27.7022 22.0564C29.0284 21.4166 29.8332 21.0973 30.1155 21.0973C31.1319 20.4585 31.8945 20.1382 32.4032 20.1382ZM28.0404 21.2227V21.3481C28.0404 21.4591 27.7297 21.653 27.1092 21.9309H26.7269V21.5556C26.9249 21.5556 27.3631 21.4446 28.0404 21.2227ZM27.1092 22.3902H27.1935C27.3621 22.3902 27.4474 22.3207 27.4474 22.1818H27.32C27.1788 22.1818 27.1092 22.2513 27.1092 22.3902ZM26.1339 22.2648L26.0065 22.5156V22.6401H26.1339C26.1339 22.4732 26.2192 22.3892 26.3888 22.3892V22.2648H26.1339ZM23.2541 23.4737H23.5933V23.7246H23.2541V23.4737ZM22.6189 23.8076C22.7875 23.8356 22.8728 23.9186 22.8728 24.0585C22.1102 24.5583 21.5035 25.031 21.0516 25.4749C20.9379 25.4749 20.5007 25.7113 19.7382 26.1841H19.6107V25.9757C20.2322 25.5029 20.6419 25.2665 20.8399 25.2665C20.8399 24.9886 21.4329 24.5023 22.6189 23.8076ZM26.0075 24.7667H25.8801L25.5409 24.5158V25.0175C25.3723 25.0996 25.2449 25.142 25.1596 25.142V25.2674H25.4145C26.2613 24.7657 26.7416 24.5158 26.8544 24.5158V24.3074C26.7416 24.3074 26.4593 24.4608 26.0075 24.7667ZM22.0259 27.2686H22.1534C22.322 27.2686 22.4072 27.1846 22.4072 27.0177V26.8923C22.2935 26.8923 22.1681 27.0177 22.0259 27.2686ZM20.8399 27.8523V27.9778C20.9242 27.9778 21.0369 28.0183 21.1781 28.1022V27.8514H20.8399V27.8523ZM19.8656 28.2277V28.3106H20.1204V28.5615H19.8656V28.686H19.993C20.1335 28.6027 20.2946 28.5593 20.4586 28.5605C20.4586 28.4496 20.3028 28.3386 19.992 28.2267H19.8646L19.8656 28.2277ZM16.0105 28.9359C16.0105 29.1578 15.8556 29.2697 15.5449 29.2697V29.3952H15.7566L16.1379 28.9359H16.0105ZM19.2726 29.0198L19.1451 29.2697V29.3952H19.2726C19.2726 29.2282 19.3569 29.1443 19.5274 29.1443V29.0189L19.2726 29.0198ZM19.8656 31.2709C19.894 31.4378 19.9783 31.5217 20.1204 31.5217C20.2322 31.2149 20.3459 31.0625 20.4586 31.0625H20.586C20.783 31.2014 20.9389 31.2709 21.0516 31.2709C21.4182 31.1319 21.6299 30.9785 21.6868 30.8126C21.5172 30.8126 21.4319 30.7286 21.4319 30.5617V30.4787C21.6299 30.4787 21.9122 30.3118 22.2798 29.9779H22.4072V30.1034L22.2798 30.3542H22.7454C22.7454 30.2703 22.7875 30.1449 22.8728 29.9779H22.5337V29.7695C22.5905 29.5196 22.9012 29.3527 23.4649 29.2697C23.4649 29.1028 23.3953 29.0189 23.2541 29.0189C22.6895 29.0478 21.5594 29.7975 19.8656 31.2709ZM17.8327 30.1034V30.2288C17.8601 30.3948 17.9307 30.4787 18.0444 30.4787L18.1718 30.2278V30.1034H17.8327ZM21.8142 30.6871V30.8126H21.8985C22.0681 30.8126 22.1534 30.7286 22.1534 30.5617V30.4787H22.0259C21.8848 30.4787 21.8142 30.5482 21.8142 30.6871ZM15.7566 31.3963C15.7566 31.4793 15.7282 31.6047 15.6723 31.7716C15.785 31.7716 15.9399 31.8546 16.1379 32.0215L16.3928 31.6452V31.5208L16.1379 31.6462L15.7566 31.3963ZM15.1636 32.4799H15.291C15.6017 32.3689 15.7566 32.2435 15.7566 32.1045H15.5449C15.4322 32.1045 15.3047 32.229 15.1636 32.4799ZM13.9776 33.189V33.4399H14.3167V33.189H13.9776ZM13.4698 33.6474V34.0237C13.6384 34.0237 13.7237 33.9397 13.7237 33.7728V33.6474H13.4688H13.4698ZM13.0032 34.0237C13.0032 34.1057 12.9611 34.2166 12.8758 34.3565H13.0032L13.2581 34.0227L13.0032 34.0237ZM3.85412 40.6523L3.98155 40.9032L3.7267 41.0277H3.60025V40.9022C3.62868 40.7353 3.71297 40.6513 3.8551 40.6513L3.85412 40.6523ZM2.16035 43.738V43.8634C2.27307 43.8634 2.40049 43.738 2.54164 43.4871H2.41422C2.24464 43.5161 2.16035 43.599 2.16035 43.738ZM61.3748 23.0154L61.5023 23.2663L61.121 24.1829V24.3084H61.2484V24.0575H61.5032V24.3084L60.0623 26.9762V27.1017H60.1898C61.0082 25.5723 61.615 24.6412 62.011 24.3074V24.5583C60.8263 26.5712 59.6964 28.6149 58.6224 30.6871V30.8126H58.7499C58.8057 30.4787 58.9459 30.3118 59.1723 30.3118H59.2998V30.5627L59.0037 30.937V31.1879L59.5536 30.5617L59.8085 30.6871C59.8085 30.5762 59.9359 30.4507 60.1898 30.3118V30.4372C60.1898 30.6871 60.0623 31.021 59.8075 31.4378C59.8928 31.6047 59.9349 31.7851 59.9349 31.9801H59.8075L59.5536 31.8546L59.4262 32.1055C59.681 32.1055 59.8085 32.1885 59.8085 32.3544C59.3282 32.5493 59.0596 32.7992 59.0028 33.1051C59.2008 33.134 59.2998 33.217 59.2998 33.356V33.4814C59.2998 33.6744 58.7773 34.2311 57.7324 35.1487V35.2741L57.9873 35.1487C58.1559 35.1767 58.2411 35.2597 58.2411 35.3996C58.1 35.3996 57.803 35.9544 57.3511 37.0669C56.9845 37.4837 56.6738 38.3038 56.4199 39.5273L55.9112 40.4024H56.0387L56.2925 40.277C56.2925 40.36 56.3347 40.4024 56.4199 40.4024L54.8516 43.6125C54.485 44.1133 54.2312 44.3632 54.09 44.3632L54.2175 44.6141C54.2175 45.0579 53.8646 45.5722 53.1588 46.1559L53.2853 46.4068L51.8875 49.1162H51.5053L51.6327 49.7414C50.5603 50.4361 49.9958 51.1598 49.9389 51.9095C49.9389 52.1874 49.0214 53.5083 47.1855 55.8712C47.2708 55.8712 47.5384 55.7043 47.9903 55.3705V55.4959C46.8819 56.7524 45.663 57.9102 44.3479 58.9559C44.3479 59.3737 43.7402 59.804 42.5267 60.2489C41.6229 60.8326 40.7623 61.124 39.9429 61.124C38.1923 61.124 35.7212 60.1379 32.5297 58.1638C30.2713 55.7738 29.1412 52.9245 29.1412 49.6169C29.1412 46.0585 30.0037 42.0138 31.7249 37.4837C32.714 35.7604 33.406 34.8978 33.801 34.8978C34.1676 34.8978 34.3519 34.7724 34.3519 34.5235L36.5544 35.1487C37.2317 35.7604 37.5708 36.3992 37.5708 37.0669C36.9778 37.9835 36.6808 38.6232 36.6808 38.9841H36.8082C36.6387 41.7359 36.4691 43.5711 36.2995 44.4886C36.4776 44.4837 36.6536 44.5271 36.8082 44.6141C36.4407 46.3923 36.1868 47.3794 36.0456 47.5733L36.1731 47.8242V48.5739H35.8761V47.4489H35.7486C35.7486 47.7538 35.6643 48.352 35.4948 49.2416H35.7496V48.9907H36.0456V49.1162C35.679 49.367 35.4948 49.5745 35.4948 49.7414V50.1177H35.6222V49.616H35.877V51.5351C35.877 51.729 35.9329 51.896 36.0456 52.0349L35.8761 52.2858C35.9898 52.4517 36.0456 52.5907 36.0456 52.7016C35.9329 52.7016 35.8761 52.7441 35.8761 52.8271C36.0172 52.8271 36.2858 53.7167 36.6808 55.4959C37.02 55.9687 37.1895 56.3575 37.1895 56.6634H37.6973C39.392 55.6898 41.4387 53.6337 43.8392 50.4921L47.1855 45.0309L54.5978 31.3124C57.3933 26.3095 59.0459 23.7516 59.5536 23.6407C59.5536 23.7236 59.5968 23.7661 59.6811 23.7661L59.5536 24.0575V24.1829L60.3162 23.5152C60.4709 23.6022 60.6469 23.6456 60.8249 23.6407C60.8249 23.3898 61.0082 23.1824 61.3748 23.0154ZM58.8753 24.8082V25.1835H59.0028C59.1449 25.1835 59.286 25.0581 59.4272 24.8082V24.4328H59.2998C59.1586 24.4328 59.0165 24.5583 58.8753 24.8082ZM58.495 25.5588V25.9757C58.6362 25.9757 58.7636 25.8367 58.8763 25.5588V25.4334C58.7067 25.5173 58.5803 25.5588 58.495 25.5588ZM57.2247 34.0227C57.2294 34.204 57.1694 34.3812 57.0551 34.5235H57.2247L57.3521 34.2726V34.0227H57.2247ZM37.0621 42.3206H37.317V42.446L36.9347 44.2378H36.6808C36.6808 43.9599 36.8082 43.3211 37.0631 42.3196L37.0621 42.3206ZM36.0456 45.906L35.8761 46.1559V46.7812H36.0456C36.0456 46.5593 36.1309 46.3084 36.3005 46.0305L36.0456 45.906ZM53.1579 47.3234H53.2853C53.0304 47.8242 52.903 48.1156 52.903 48.1986H52.6501V47.9487C52.8756 47.5319 53.0451 47.3234 53.1579 47.3234ZM52.2688 48.5739H52.5227V48.8663C52.5227 49.0332 52.4374 49.1171 52.2678 49.1171H52.1414C52.2257 48.9492 52.2688 48.7688 52.2688 48.5739ZM46.5504 56.538H46.6778C46.8464 56.538 46.9317 56.4415 46.9317 56.2456V56.1202C46.819 56.1202 46.6915 56.2601 46.5494 56.538H46.5504ZM46.1691 56.7888C46.1691 56.9548 46.0848 57.0387 45.9142 57.0387V57.1642H46.1691L46.4239 56.7879L46.1691 56.7888ZM75.5651 0.374725C75.6494 0.513667 75.6925 0.667081 75.6925 0.834004L75.9033 0.708571V0.834004C75.7621 1.1389 75.6915 1.41775 75.6915 1.66765H75.7768L76.3698 1.29135L76.4973 1.54222C75.3955 4.32201 74.8447 5.83686 74.8447 6.08676H74.7172L74.8447 6.29518L73.6586 9.00646H73.9978C74.0821 8.44973 74.2526 8.17185 74.5055 8.17185C74.5055 8.28281 74.6192 8.40824 74.8447 8.54718C74.9299 8.38026 74.9721 8.25483 74.9721 8.17185H75.0995C75.2397 8.19983 75.3112 8.28281 75.3112 8.42272C74.9721 9.03348 74.7319 9.33934 74.5908 9.33934V9.46478C74.7604 9.65872 74.8456 9.81213 74.8456 9.92309H74.9721C75.0848 9.92309 75.2397 9.6867 75.4377 9.21391V8.63016C75.5504 8.63016 75.7062 8.43623 75.9033 8.04642L75.7758 7.83801L76.7511 5.50302C76.7511 5.36407 76.5953 5.21163 76.2846 5.0447C76.1434 5.0447 75.9738 5.19812 75.7768 5.50302C75.8895 5.50302 76.0875 5.69792 76.3698 6.08676C75.8327 6.81042 75.4798 7.31022 75.3112 7.5881H75.0985V7.37969H74.8447C74.8447 7.8245 74.7604 8.04642 74.5898 8.04642C74.4496 8.04642 74.3791 7.97695 74.3791 7.83801C74.6614 7.39416 74.9015 6.80945 75.0985 6.08676C75.8043 4.30851 76.1571 3.37741 76.1571 3.29346L76.4963 3.04259H76.6237C76.5394 3.37741 76.4963 3.65529 76.4963 3.87721C76.7511 3.87721 76.8786 4.03062 76.8786 4.33552L76.6237 4.46096L76.7511 5.12865H76.9629C76.9913 4.73884 77.2736 4.27956 77.8097 3.75274C77.8097 3.83572 77.8519 3.87817 77.9372 3.87817C77.8369 4.16867 77.6236 4.40812 77.3441 4.54393C77.3441 4.62788 77.3863 4.66937 77.4716 4.66937C77.2167 5.89282 76.9344 6.94839 76.6237 7.83801L76.8786 7.96344C77.1599 6.85191 77.4706 6.18422 77.8097 5.9623C77.8097 6.04527 77.8519 6.08773 77.9372 6.08773C77.8519 6.94839 77.7254 7.49065 77.5549 7.71354H77.9372C77.9372 7.79652 77.894 7.83897 77.8097 7.83897L77.9372 8.42175C76.6467 12.0986 75.4181 15.7962 74.2516 19.5129C74.8731 19.5129 75.1828 19.5409 75.1828 19.5959L75.4377 19.5129C76.9379 19.5189 78.4371 19.4351 79.927 19.2621C80.0975 19.346 80.224 19.3875 80.3092 19.3875C80.422 19.2486 81.3678 19.1241 83.1469 19.0122C83.288 19.0961 83.4017 19.1376 83.486 19.1376C83.6404 19.0508 83.8161 19.0074 83.9938 19.0122C83.9938 19.1791 84.0644 19.263 84.2055 19.263C84.2339 19.0961 84.3182 19.0122 84.4604 19.0122H85.519L86.112 18.9292C86.112 18.9852 86.1541 19.0122 86.2394 19.0122C86.2394 18.9012 86.9451 18.7488 88.3566 18.5539V18.6793L91.3217 18.22C91.462 18.3036 91.6233 18.3471 91.7873 18.3455C91.8167 18.1785 91.9 18.0946 92.0421 18.0946H92.1696C92.3382 18.0946 92.493 18.137 92.6342 18.22C92.7749 18.1365 92.9364 18.0931 93.1008 18.0946L93.3556 18.22C93.3556 18.1091 93.4674 17.9846 93.6938 17.8447C93.8349 17.9286 93.9486 17.9701 94.0329 17.9701C94.0604 17.8312 94.1456 17.7617 94.2868 17.7617H94.6259L94.5407 17.9701H94.8798C94.8798 17.7482 95.713 17.5118 97.3783 17.2619C97.5195 17.3449 97.6753 17.3873 97.8449 17.3873C98.0988 17.3873 98.4516 17.233 98.9035 16.9281C98.9035 17.095 99.0162 17.178 99.2427 17.178C99.4681 17.178 99.7504 17.0525 100.09 16.8026C100.254 16.801 100.415 16.8444 100.555 16.9281C100.725 16.8441 100.852 16.8026 100.936 16.8026L101.148 16.9281C101.826 16.5662 102.616 16.3028 103.52 16.1359C103.52 16.052 103.605 16.0105 103.775 16.0105C103.803 16.1494 103.873 16.2189 103.987 16.2189C104.241 16.2189 104.763 16.0664 105.553 15.7606C105.695 15.8435 105.85 15.886 106.02 15.886H106.274V15.7606C106.189 15.6216 106.146 15.5097 106.146 15.4267H106.274C106.438 15.4251 106.599 15.4685 106.739 15.5522L110.89 14.4676H111.018L110.89 14.2592V14.1338C111.031 14.1627 111.102 14.2457 111.102 14.3847L111.357 14.2592L111.611 14.3847C113.35 13.8239 115.117 13.3505 116.906 12.9663H117.286V12.6334H117.753C118.543 12.4945 118.939 12.3276 118.939 12.1326L119.277 12.3835C119.701 12.1616 120.336 11.9242 121.183 11.6743V11.5489L121.776 11.6743C123.104 11.2015 124.135 10.9372 124.869 10.8822C124.869 10.7982 124.953 10.7567 125.123 10.7567L125.334 10.8822L126.52 10.3814H126.774L127.113 10.6323H127.24L127.113 10.3814C127.535 10.2433 127.934 10.0467 128.3 9.79766H128.638C128.638 9.6867 128.765 9.57574 129.019 9.46478C129.019 9.57574 129.133 9.6867 129.358 9.79766C129.358 9.65872 129.486 9.58925 129.739 9.58925L130.332 9.71468C130.332 9.54776 130.403 9.46381 130.544 9.46381C130.714 9.54776 130.841 9.58925 130.925 9.58925L131.518 9.13093H131.603L131.518 9.33934V9.46478H131.603C132.93 9.04795 133.805 8.69963 134.23 8.42272L134.823 8.54718C134.85 8.38026 134.935 8.29632 135.077 8.29632L135.288 8.42175H135.416V8.29632H135.161V8.04642L136.009 8.17185H136.135L136.009 7.96344V7.83801L137.067 7.46267V7.5881L136.94 7.83897H137.533C137.787 7.61609 138.776 7.33724 140.498 7.00436C140.526 6.8934 141.557 6.58753 143.591 6.08773C143.618 5.92081 143.703 5.83686 143.844 5.83686L144.056 5.9623C144.451 5.79537 145.963 5.40653 148.589 4.7948C148.589 4.71086 148.617 4.66937 148.673 4.66937H149.647L150.24 4.7948V4.33552C150.353 4.33552 150.819 4.21009 151.638 3.96115H152.104V4.08659L152.019 4.33552H152.104C153.093 4.03062 153.728 3.87721 154.01 3.87721V3.96115C153.926 4.18307 152.471 4.61437 149.647 5.25408L141.091 7.58907V7.83801H141.218C141.953 7.5881 142.39 7.46267 142.531 7.46267V7.5881L142.998 7.37969C143.104 7.42711 143.219 7.45522 143.336 7.46267C143.732 7.26873 143.929 7.11532 143.929 7.00436L144.522 7.12979C144.918 6.82393 145.2 6.67051 145.37 6.67051L145.963 6.79594C145.99 6.62902 146.075 6.54508 146.216 6.54508L146.428 6.67051C146.428 6.42061 146.951 6.22667 147.996 6.08676H148.207V6.42061H148.589L148.461 5.83686H149.182L149.859 5.37855H149.986L150.24 5.50398C150.269 5.33706 150.339 5.25311 150.452 5.25311H150.579C150.579 5.44802 150.664 5.64196 150.833 5.83686L150.452 6.29518C150.537 6.29518 150.579 6.33763 150.579 6.42061H150.452C150.311 6.42061 150.24 6.30965 150.24 6.08676C150.071 6.11571 149.986 6.18422 149.986 6.29518C150.156 6.37912 150.282 6.42061 150.368 6.42061C150.368 6.69849 149.803 6.85191 148.673 6.87892C148.758 6.73998 148.8 6.62902 148.8 6.54604H148.673C148.56 6.62902 148.334 6.67148 147.996 6.67148C147.996 6.80945 148.108 6.87892 148.334 6.87892V7.12979L147.741 7.25522L147.614 7.00436C147.614 6.92138 147.656 6.87892 147.741 6.87892L147.614 6.67051V6.54508H147.996V6.42061C147.91 6.42061 147.784 6.37912 147.614 6.29518C147.382 6.46434 147.099 6.55259 146.809 6.54604V6.79594C146.979 6.79594 147.205 6.9069 147.487 7.12979H147.614L147.402 7.46267C147.458 7.62959 147.487 7.75503 147.487 7.83897C146.583 8.06089 145.99 8.25483 145.708 8.42175C145.567 8.42175 145.496 8.33877 145.496 8.17185C146.682 7.81099 147.275 7.57363 147.275 7.46267H146.809V7.25426H147.021V7.00436H146.894C146.386 7.56012 145.835 7.83801 145.242 7.83801C145.158 7.67205 145.115 7.54661 145.115 7.46267H145.03L144.649 7.71354L144.437 7.5881L144.31 7.83897H144.649V8.04642C143.238 8.46421 142.531 8.74113 142.531 8.88103H142.658L143.463 8.7556V8.88103C143.463 9.01997 142.828 9.25637 141.557 9.58925C141.557 9.67319 141.486 9.71468 141.345 9.71468C141.091 9.71468 140.964 9.54776 140.964 9.21391H140.752C140.414 9.77064 140.088 10.0485 139.778 10.0485V9.92309C139.468 10.09 139.199 10.174 138.973 10.174V9.92309C139.566 9.78415 139.92 9.71468 140.032 9.71468L139.905 9.46381C135.557 10.6313 133.354 11.299 133.298 11.4659C135.061 11.096 136.801 10.6224 138.507 10.0476C138.507 10.1315 138.86 10.3679 139.566 10.7567C139.284 10.8957 138.804 11.0491 138.126 11.216V11.0906L137.914 11.216H137.449C137.561 10.9372 138.07 10.7847 138.973 10.7567C138.973 10.5898 138.889 10.5068 138.719 10.5068H138.126C137.392 10.7577 136.926 10.8822 136.728 10.8822H136.474C136.474 11.133 135.839 11.355 134.568 11.5489C134.568 11.7158 134.342 11.7998 133.891 11.7998L133.975 12.0497C134.342 11.8827 134.865 11.7988 135.542 11.7988H135.754C135.754 11.4939 135.994 11.3405 136.474 11.3405H137.067V11.5489H136.856C136.602 11.5489 136.121 11.7158 135.416 12.0497C134.794 12.0497 133.805 12.3555 132.451 12.9663C131.66 12.9663 131.265 13.0782 131.265 13.3001C131.158 13.2527 131.043 13.2246 130.925 13.2172L130.417 13.4256C130.417 13.2866 130.346 13.2172 130.205 13.2172C130.205 13.495 129.768 13.6899 128.893 13.8009L128.638 13.6755H128.553V13.8009H128.765C128.765 13.9399 128.695 14.0093 128.553 14.0093L127.96 13.8839C127.932 13.9958 127.537 14.2312 126.774 14.5931C126.774 14.5091 126.732 14.4676 126.647 14.4676C126.563 14.6346 126.52 14.76 126.52 14.8439H126.393C126.393 14.676 126.351 14.5931 126.267 14.5931L126.054 14.7185L125.8 14.5931C125.716 14.5931 125.518 14.787 125.207 15.1768C125.207 15.0379 125.136 14.9684 124.995 14.9684H124.614C124.303 15.1903 123.598 15.4122 122.497 15.6351C122.411 15.3293 122.257 15.1768 122.03 15.1768C121.861 15.2598 121.734 15.3023 121.649 15.3023V15.4277C121.988 15.4277 122.158 15.4962 122.158 15.6351C121.677 15.83 121.437 15.997 121.437 16.1359H121.565L121.437 16.3443V16.4697C124.261 15.775 126.506 15.1073 128.172 14.4676C128.257 14.4676 128.3 14.5091 128.3 14.5931C128.921 14.2872 129.358 14.1338 129.612 14.1338L129.824 14.2592C129.824 14.0923 131.179 13.661 133.891 12.9663C143.152 10.3264 148.518 8.85305 149.986 8.54718V8.7556L136.263 12.6334C135.132 12.9393 134.497 13.1612 134.356 13.3001C133.99 13.3001 132.055 13.8144 128.553 14.8439C128.3 14.9819 126.789 15.4132 124.021 16.1359C123.908 16.1359 123.513 16.3163 122.835 16.6782C122.728 16.6304 122.614 16.602 122.497 16.5942C122.411 16.7332 122.369 16.8451 122.369 16.9281L121.776 16.8026H121.649V16.9281H121.904V17.178C119.927 17.5398 118.825 17.8871 118.6 18.22C118.43 18.137 118.303 18.0946 118.218 18.0946C117.908 18.3734 116.567 18.8038 114.195 19.3875C114.195 19.4715 114.152 19.5129 114.067 19.5129C113.926 19.43 113.813 19.3875 113.729 19.3875L113.602 19.5959L113.008 19.5129C112.755 19.5129 112.486 19.6654 112.204 19.9713C112.034 19.8883 111.907 19.8458 111.822 19.8458L111.695 20.0967L111.483 19.9713H111.229C111.229 20.1932 111.159 20.3051 111.018 20.3051H110.764L110.171 20.1797C110.171 20.3466 109.973 20.5135 109.578 20.6804L108.857 20.555C107.812 21.2497 103.238 22.3342 95.1347 23.8066C93.1576 24.1964 90.5866 24.5853 87.4245 24.9741V24.8497C82.8224 25.5733 77.993 25.9342 72.9392 25.9342H72.7274C72.4442 26.212 71.6541 28.9639 70.3554 34.1896C66.5424 46.0035 63.494 54.2445 61.2062 58.9144C61.0082 59.6091 60.5005 60.2768 59.6811 60.9156H59.4262C58.6362 60.9156 58.2402 60.8326 58.2402 60.6657L58.0294 60.7911H57.902L55.7848 59.999C55.6995 59.999 55.5721 60.0269 55.4025 60.0819C54.8379 60.0819 54.288 59.6931 53.7509 58.9144C55.6427 54.9951 57.0267 51.813 57.902 49.3661L60.0192 43.8624C60.0192 43.6685 60.4574 42.473 61.3327 40.277C62.4344 37.0254 63.5773 33.0916 64.7634 28.4766C64.9055 28.4766 65.2299 27.588 65.7377 25.8087C61.9257 25.169 59.3988 24.3904 58.1559 23.4737C57.7609 23.4737 56.6875 22.6961 54.9369 21.1388V20.7634H55.1918V20.555C54.7958 19.9713 54.5556 19.2351 54.4713 18.3455C54.386 18.3455 54.3439 18.304 54.3439 18.22L54.4713 17.9701C54.3867 17.8318 54.3426 17.6732 54.3439 17.5118H54.4713L54.3439 17.2609V17.178C54.4292 16.0105 54.6683 15.4267 55.0643 15.4267L60.6122 17.9701L64.1703 18.9292L64.4252 18.8038C64.8761 18.9427 65.8651 19.1376 67.3903 19.3875C67.7853 18.3869 68.1803 17.1365 68.5763 15.6351C69.099 13.537 69.7638 11.4756 70.5661 9.46478C70.6798 8.85305 70.8778 8.54718 71.1601 8.54718C71.1601 8.46421 71.1307 8.42175 71.0748 8.42175C71.0748 7.67205 71.3856 7.00436 72.006 6.42061L71.8796 6.2122C72.4167 5.82335 72.7696 5.62845 72.9382 5.62845C72.9382 5.37758 72.9107 5.25311 72.8539 5.25311C72.8539 5.08619 72.9666 4.62788 73.193 3.87721H73.786C74.2938 2.29289 74.8868 1.1254 75.5651 0.374725ZM76.6237 2.33438H76.8786V2.71068H76.3689V2.58525C76.3983 2.41832 76.4826 2.33438 76.6237 2.33438ZM155.577 2.91813V3.16899C155.013 3.30793 154.687 3.3774 154.603 3.3774L154.476 3.16899C154.843 3.00207 155.21 2.91813 155.577 2.91813ZM156.17 3.29443H156.509V3.50091H155.916C155.944 3.36197 156.029 3.2925 156.17 3.2925V3.29443ZM155.789 3.50187C155.789 3.69678 155.323 3.84923 154.391 3.96115L154.264 3.75274C155.055 3.58582 155.563 3.50187 155.789 3.50187ZM157.441 3.62731H157.696C157.696 3.82221 157.342 3.93317 156.636 3.96115V3.75178L157.441 3.62731ZM150.579 4.54393V4.66937H150.706C151.327 4.58639 151.638 4.47543 151.638 4.33552H151.51C151.455 4.33552 151.144 4.40403 150.579 4.54393ZM155.196 4.21105V4.46192L154.984 4.33649C154.984 4.47543 154.899 4.5449 154.73 4.5449H154.603C154.462 4.5449 154.391 4.47543 154.391 4.33552L155.196 4.21105ZM154.391 4.46192L154.137 4.7948C154.222 4.93374 154.264 5.04567 154.264 5.12865H154.137L153.798 4.91927H153.417L153.544 5.12865V5.25408H153.29C153.177 5.25408 153.064 5.14215 152.951 4.91927C153.121 4.75331 153.6 4.60086 154.391 4.46096V4.46192ZM152.612 4.7948L152.824 5.37855L152.485 5.62941H152.358C152.189 5.62941 152.104 5.54547 152.104 5.37855H152.612V5.25311H152.104C152.104 5.42004 152.033 5.50398 151.892 5.50398C151.723 5.50398 151.638 5.42004 151.638 5.25311C151.638 5.11417 151.962 4.96172 152.612 4.7948ZM150.833 5.25311H151.426C151.426 5.55898 151.497 5.71239 151.638 5.71239H152.612V5.83783C152.612 6.00378 152.245 6.12922 151.51 6.2122V6.08676L151.638 5.83686C151.214 5.83686 150.946 5.68441 150.833 5.37855V5.25311ZM150.24 5.62941L150.113 5.83686V5.9623C150.254 5.87889 150.415 5.83548 150.579 5.83686V5.71143C150.462 5.70412 150.347 5.676 150.24 5.62845V5.62941ZM75.6915 5.71143L75.5641 6.29518C75.6778 6.29518 75.8327 6.14273 76.0307 5.83686L75.7758 5.71143H75.6915ZM148.927 6.08773V6.29518C149.096 6.29518 149.182 6.37912 149.182 6.54604H149.52C149.689 6.54604 149.775 6.4621 149.775 6.29518C149.605 6.29518 149.52 6.22571 149.52 6.08676H149.859V5.83686C149.633 6.00379 149.323 6.08773 148.927 6.08773ZM151.426 6.42061H151.638V6.67148H151.172C151.201 6.50455 151.285 6.42061 151.426 6.42061ZM75.3102 6.67148C75.3102 6.78244 75.2397 6.93489 75.0985 7.12979V7.25522C75.2122 7.25522 75.3671 7.10084 75.5651 6.79594L75.3102 6.67051V6.67148ZM143.591 7.5881C143.675 7.5881 143.788 7.62959 143.929 7.71354H144.056V7.5881C143.915 7.5881 143.844 7.51863 143.844 7.37969C143.675 7.40767 143.591 7.47618 143.591 7.5881ZM137.533 7.37969H137.66V7.46267C137.66 7.62959 137.59 7.71354 137.449 7.71354L137.321 7.46267L137.533 7.37969ZM140.371 7.83801C140.456 7.97695 140.498 8.13036 140.498 8.29728H140.625C140.625 8.15834 140.738 7.96344 140.964 7.71354H140.752C140.583 7.79652 140.456 7.83897 140.371 7.83897V7.83801ZM143.124 7.71257L143.251 7.96344C143.393 7.88046 143.505 7.83801 143.591 7.83801V7.71257H143.124ZM143.844 8.04642H143.929C144.098 8.04642 144.184 7.97695 144.184 7.83801H144.056C143.915 7.86695 143.844 7.93546 143.844 8.04642ZM149.054 7.71354H149.393V7.96344H149.054V7.71257V7.71354ZM76.1571 9.21295C76.3836 9.21295 76.5816 8.8241 76.7511 8.04545H76.6237C76.3983 8.04545 76.2414 8.43526 76.1571 9.21295ZM138.593 8.54622L140.032 8.17089V8.04545H139.905C139.03 8.15738 138.593 8.3243 138.593 8.54622ZM142.531 8.42079H142.743C142.912 8.33781 143.04 8.29535 143.124 8.29535V8.17089H142.743C142.602 8.19887 142.531 8.28185 142.531 8.42175V8.42079ZM148.207 8.04545L148.334 8.29632L147.996 8.54622H147.149C147.149 8.40728 147.501 8.24036 148.207 8.04545ZM144.777 8.29632H145.242C145.242 8.46324 145.172 8.54622 145.03 8.54622H144.777V8.29535V8.29632ZM137.533 8.6292V8.88007H137.66L137.914 8.75463C138.055 8.83761 138.211 8.88007 138.38 8.88007H138.507C138.507 8.76814 138.352 8.65815 138.042 8.54622C138.042 8.60218 138 8.6292 137.914 8.6292V8.54718C137.792 8.593 137.663 8.62095 137.533 8.63016V8.6292ZM146.089 8.54622H146.216C146.358 8.54622 146.428 8.61569 146.428 8.75463V8.88007H146.089V8.54622ZM130.205 10.7558V10.8812H130.544C130.826 10.7143 131.349 10.5474 132.111 10.3804C132.111 10.4924 132.224 10.6168 132.451 10.7567H132.577C132.408 10.5618 132.323 10.4364 132.323 10.3804C132.577 10.2415 132.817 10.172 133.044 10.172L133.637 10.2975L133.509 10.0466L137.194 9.00453V8.75463L130.205 10.7558ZM144.903 8.88007H145.37C145.37 9.04699 145.284 9.12997 145.115 9.12997H144.903V8.88007ZM138.507 9.12997V9.33838C138.761 9.33838 138.959 9.37987 139.1 9.46381V9.21295L138.507 9.12997ZM70.6935 9.71371V10.2975H70.821L70.9484 9.71371H70.6935ZM137.067 9.71371C137.096 9.85266 137.18 9.92213 137.321 9.92213H137.449C137.449 9.78319 137.363 9.71371 137.194 9.71371H137.067ZM129.486 9.79669V9.92213H129.951V9.79669H129.486ZM141.684 9.79669H142.065C142.065 9.96362 141.981 10.0476 141.811 10.0476H141.684V9.79669ZM74.7172 10.2975V10.5059C74.8868 10.4229 75.0142 10.3804 75.0995 10.3804V10.0476H74.9721C74.8025 10.0755 74.7172 10.1585 74.7172 10.2975ZM73.3195 10.172V10.5059C73.4616 10.5059 73.5322 10.4364 73.5322 10.2975V10.172H73.3195ZM141.091 10.0466V10.2975L140.498 10.3804C140.498 10.2145 140.696 10.1016 141.091 10.0466ZM139.693 10.3804H140.286V10.6313C140.004 10.7143 139.834 10.7567 139.778 10.7567L139.693 10.5059V10.3804ZM128.172 11.3395V11.465H128.426C128.567 11.465 128.807 11.381 129.146 11.2141C129.288 11.298 129.4 11.3395 129.486 11.3395L129.612 11.0896H129.358C129.16 11.0896 128.765 11.1726 128.172 11.3405V11.3395ZM124.402 11.2141V11.3395H124.869V11.2141H124.402ZM126.774 11.9233H127.113L127.453 11.6724C127.621 11.7563 127.749 11.7978 127.833 11.7978L127.96 11.5479C127.791 11.5479 127.706 11.5209 127.706 11.465C127.085 11.6319 126.774 11.7843 126.774 11.9233ZM131.603 12.0487H131.73C131.9 12.0487 131.984 11.9648 131.984 11.7978H131.858C131.688 11.8268 131.603 11.9098 131.603 12.0487ZM133.17 12.0487C133.17 11.9648 133.128 11.9233 133.044 11.9233C133.044 12.0622 132.21 12.3266 130.544 12.7154V12.9663H130.925C131.123 12.8264 132.069 12.5215 133.763 12.0487V11.7978H133.509L133.17 12.0487ZM127.579 13.0908H127.96V12.8399H127.833C127.664 12.8688 127.579 12.9518 127.579 13.0908ZM128.893 13.0908V13.2992L130.079 13.2162V13.0908C129.993 13.0908 129.881 13.0493 129.739 12.9653C129.464 13.0438 129.179 13.086 128.893 13.0908ZM73.5312 13.2162V13.5491H73.9135V13.2162H73.5312ZM125.8 14.0074V14.1328H126.054C126.337 14.1328 127.198 13.8974 128.638 13.4246V13.2992H128.3C127.848 13.55 127.014 13.7855 125.8 14.0084V14.0074ZM125.588 13.6745H125.8C125.97 13.5915 126.097 13.5491 126.181 13.5491V13.4236H125.8C125.659 13.4526 125.588 13.5356 125.588 13.6745ZM122.835 14.3837V14.5921L123.683 14.4667L123.555 14.2583L122.835 14.3837ZM122.242 14.4667V14.5921H122.751L122.623 14.3837C122.501 14.4295 122.372 14.4574 122.242 14.4667ZM124.741 14.5921H124.995C125.136 14.5921 125.207 14.5226 125.207 14.3837H124.995C124.826 14.3837 124.741 14.4532 124.741 14.5921ZM123.344 14.7175V14.9674C123.598 14.9674 123.796 14.9954 123.937 15.0504C123.937 14.8285 124.162 14.7175 124.614 14.7175V14.4667H124.53C123.965 14.6336 123.569 14.7175 123.344 14.7175ZM120.59 14.9674V15.0504H121.056C121.225 15.0504 121.311 14.9809 121.311 14.842C121.225 14.842 121.183 14.8005 121.183 14.7166C120.929 14.8835 120.731 14.9674 120.59 14.9674ZM122.497 15.0504V15.1759C122.661 15.1771 122.822 15.1337 122.962 15.0504L123.216 15.1759H123.344V15.0504C123.09 15.0504 122.962 14.9395 122.962 14.7175C122.652 14.8285 122.497 14.9395 122.497 15.0504ZM118.939 16.0095V16.1349H119.065L120.59 15.7586C120.76 15.8426 120.887 15.8841 120.972 15.8841V16.0095C120.972 16.1484 120.887 16.2179 120.718 16.2179C120.548 16.2179 120.392 16.1899 120.251 16.1349L119.532 16.4678L119.277 16.3424C119.277 16.4543 119.08 16.6068 118.684 16.8017H118.472L118.218 16.6762C118.218 16.8431 118.02 16.9271 117.625 16.9271L117.753 17.177L117.498 17.2609C117.498 17.121 117.427 17.0516 117.286 17.0516C117.117 17.1355 116.99 17.177 116.906 17.177C117.074 17.3719 117.16 17.5243 117.16 17.6353H117.413L117.286 17.3854V17.26L117.879 17.3854C118.02 17.3854 118.091 17.3159 118.091 17.177L118.346 17.2609H118.6L118.472 17.0516L118.684 16.9261C118.712 17.094 118.798 17.177 118.939 17.177H119.193L119.065 16.9261L119.277 16.8017V17.0525C120.294 16.8576 120.972 16.5797 121.311 16.2179L121.183 16.0095L121.565 15.4258H120.972V15.7596H120.844V15.4258L118.939 16.0095ZM116.906 16.6772H117.413C117.555 16.6772 117.625 16.6068 117.625 16.4678H117.16C116.99 16.4968 116.906 16.5662 116.906 16.6772ZM113.855 17.3854V17.5108H114.322V17.26H114.195C114.053 17.3439 113.941 17.3854 113.855 17.3854ZM116.567 17.3854V17.5108C116.595 17.6778 116.679 17.7607 116.82 17.7607H116.906V17.3854H116.567ZM115.634 17.5108C115.636 17.6723 115.592 17.831 115.507 17.9692H115.846V17.7607L116.1 17.8437H116.439V17.7607C116.439 17.5938 116.369 17.5099 116.227 17.5099H115.634V17.5108ZM115.041 17.7607C115.041 17.8997 114.957 17.9692 114.788 17.9692C114.816 18.1361 114.9 18.22 115.041 18.22H115.253V18.0946L115.127 17.8437C115.211 17.8437 115.253 17.8167 115.253 17.7607H115.041ZM111.018 18.8028L111.102 19.0112C110.961 19.0952 110.848 19.1366 110.764 19.1366C110.791 19.3036 110.877 19.3875 111.018 19.3875C111.865 19.0537 112.415 18.7748 112.669 18.5529C112.867 18.5529 113.093 18.6368 113.348 18.8038L113.474 18.5529C113.39 18.5529 113.348 18.5114 113.348 18.4275L113.941 18.5529L114.66 18.3445C114.66 18.1776 114.59 18.0936 114.448 18.0936H114.322L113.941 18.3445C113.941 18.1776 113.912 18.0936 113.855 18.0936C113.686 18.1776 113.559 18.2191 113.474 18.2191V18.0936C112.232 18.5664 111.413 18.8028 111.018 18.8028ZM109.45 19.3866C109.479 19.5255 109.563 19.595 109.704 19.595C110.269 19.595 110.58 19.484 110.636 19.2621L110.043 19.1366V19.3875H109.916V19.1366H109.704C109.535 19.1646 109.45 19.2466 109.45 19.3866ZM108.518 19.512V19.595L109.239 19.7204C109.239 19.6094 109.111 19.4985 108.857 19.3866C108.716 19.4705 108.604 19.512 108.518 19.512ZM85.2641 29.6866H87.1284C91.6177 29.6866 95.1474 31.6742 97.7175 35.6495C98.5085 37.3997 99.0868 39.096 99.4544 40.7353L99.2848 41.486V42.1112C99.2848 42.3331 99.3417 42.5425 99.4544 42.7374C99.0306 45.2385 98.246 47.6672 97.1245 49.9498C97.1245 50.9234 96.3903 52.4102 94.922 54.4114C94.0182 54.5783 92.9312 55.3425 91.6609 56.7049C90.7003 57.1217 89.4436 57.8309 87.891 58.8315H88.0606C89.3594 58.4417 90.1357 58.2477 90.3895 58.2477V58.5391L83.0616 60.9995C81.114 60.9995 79.0948 60.2759 77.005 58.8315C76.1865 58.0528 75.1975 56.6769 74.0399 54.7037C74.0399 54.5648 73.4616 53.1329 72.303 50.4091C72.1903 49.1856 72.0354 48.5739 71.8374 48.5739C71.8374 44.8775 73.8145 41.8478 77.7676 39.4848C79.2075 38.8451 80.5631 38.3868 81.8334 38.1089C81.8334 37.998 81.8756 37.942 81.9609 37.942C83.288 38.2199 84.1771 38.7341 84.6289 39.4848C84.6289 39.6797 84.8838 40.194 85.3915 41.0277V41.486C85.3915 42.0697 84.8269 42.7924 83.6978 43.654C83.8948 43.682 83.9938 43.7795 83.9938 43.9464C83.2037 44.3352 82.5255 45.0579 81.9609 46.1145V46.4058H82.1304L82.9342 45.9475H83.5282L80.2661 48.241C79.1095 49.4355 78.3743 50.6175 78.0636 51.785C78.0636 52.0069 78.4871 52.3128 79.3349 52.7016H80.0975C81.9893 52.7016 84.6436 51.8815 88.0606 50.2412C90.4885 48.463 92.2107 46.5168 93.2282 44.4047C93.9339 43.1262 94.4417 41.3885 94.7524 39.1934V38.1089C94.0182 36.9694 92.4097 36.1078 89.924 35.5231C88.9928 35.5231 88.2155 35.4131 87.594 35.1902L84.9259 35.524V35.1902C85.0671 35.1902 85.6454 35.0937 86.6628 34.8978H89.3309L90.0935 35.0233L90.2631 34.7319L89.924 34.5649C89.0486 34.6759 88.3282 34.7319 87.7636 34.7319L85.3915 33.9812H85.0965C84.871 33.9812 84.6583 34.0227 84.4604 34.1066C84.2754 34.0197 84.0723 33.9768 83.8673 33.9812L83.0636 34.1066C82.498 33.4119 82.0883 33.0646 81.8344 33.0646C81.411 32.8967 81.1992 32.7442 81.1992 32.6053C81.1992 32.4943 81.411 32.174 81.8344 31.6462C81.8344 31.2294 81.5668 30.8261 81.0307 30.4372C82.2726 29.9365 83.6831 29.6866 85.2641 29.6866ZM118.557 32.6053V32.7307C118.445 33.0086 118.148 33.1475 117.667 33.1475V33.4389H117.964C118.218 33.244 119.023 33.0076 120.379 32.7307L121.099 32.8967C121.155 32.8967 121.353 32.8417 121.692 32.7307C122.595 32.7307 124.162 33.3 126.393 34.4395C127.156 35.0792 127.537 35.4546 127.537 35.5655C127.453 35.7324 127.41 35.8714 127.41 35.9823C128.144 36.4551 129.189 37.3862 130.544 38.7756C131.843 37.4412 133.891 36.1772 136.686 34.9818L137.406 34.8563V34.9818C137.83 34.6199 138.875 34.2446 140.54 33.8558V34.0227L141.388 33.7313C141.557 33.8143 141.698 33.8567 141.811 33.8567C142.489 33.7728 142.87 33.7313 142.954 33.7313C143.068 33.7313 143.646 33.9117 144.691 34.2726C144.691 34.1336 144.875 33.9947 145.242 33.8558C146.802 34.4884 148.329 35.1981 149.817 35.9823C150.813 36.3204 151.733 36.8443 152.528 37.5252C153.714 37.8031 155.041 39.2069 156.509 41.7359C157.553 42.9323 158.133 43.5846 158.245 43.6955C158.726 45.0579 158.966 45.9051 158.966 46.2389C158.853 46.2389 158.796 46.2814 158.796 46.3644C158.994 46.3644 159.093 46.5033 159.093 46.7812C158.895 46.9761 158.754 47.9631 158.669 49.7414C157.597 52.2713 154.222 55.4534 148.546 59.2898C143.463 62.7093 138.931 65.4331 134.949 67.4622C131.364 69.8802 128.229 72.1737 125.546 74.3418C118.825 80.707 115.154 84.6408 114.534 86.1421C113.15 88.0314 112.387 88.9769 112.246 88.9769H111.822V89.1024L112.118 89.5182H111.95L111.695 89.3928H111.272C111.272 89.1709 111.075 89.0319 110.679 88.9769V88.5601H110.383C110.383 88.838 110.297 88.9769 110.128 88.9769H109.959V88.81C109.959 88.6431 110.156 88.1848 110.552 87.4341L110.255 87.5595C110.057 87.5595 109.959 87.4621 109.959 87.2672C111.004 85.6829 111.624 84.8907 111.822 84.8907V84.7653C111.258 84.7653 110.976 84.6263 110.976 84.3484L112.246 82.6387L112.543 82.7641C112.543 82.1804 113.065 81.3458 114.109 80.2622H114.237V80.3876L113.813 80.9714V81.3882H113.983C114.124 81.3882 114.364 81.1103 114.702 80.5546V80.0953C114.393 80.0953 114.237 80.0123 114.237 79.8454C116.044 77.4824 117.188 76.3014 117.667 76.3014V76.5928H117.964L117.667 76.176C117.978 75.6762 118.699 74.8281 119.828 73.6326V73.5071H119.701C119.503 73.5911 119.347 73.6326 119.235 73.6326C119.235 73.4936 119.574 73.1743 120.251 72.6735L120.548 72.7989H120.675V72.6735H120.379C120.407 72.4796 120.506 72.3821 120.675 72.3821L120.972 72.5075H121.099V72.3821H120.802V72.0898C120.802 71.9238 120.958 71.8399 121.268 71.8399V71.5485C120.11 72.3261 119.532 72.7854 119.532 72.9244C118.346 73.9799 117.724 74.5087 117.667 74.5087H117.541V74.3418L117.667 74.0494H117.541C117.427 74.0494 117.004 74.4807 116.27 75.3423V75.4678H116.524V75.7592C116.242 76.2319 115.48 77.0801 114.237 78.3026L113.559 77.7188C113.644 77.6078 113.686 77.3715 113.686 77.0106H113.559V76.8852C113.559 76.6903 113.743 76.5928 114.109 76.5928L113.983 76.3014C113.983 76.1625 114.547 75.7871 115.677 75.1754C116.439 74.5367 117.442 73.4657 118.684 71.9653H118.557L118.26 72.0907L118.091 71.8399C118.402 71.7289 118.699 71.396 118.981 70.8393H119.235V70.7138L119.108 70.4225C119.415 70.2176 119.761 70.0758 120.125 70.0056L119.955 69.7133L120.802 69.1295C120.718 69.1295 120.675 69.088 120.675 69.0041C121.946 68.1704 122.665 67.7536 122.835 67.7536C123.776 67.0493 124.629 66.2376 125.377 65.3356C126.082 64.8349 127.226 64.1402 128.807 63.2515C128.807 62.8617 129.387 62.3474 130.544 61.7077H130.121V61.5418C131.532 60.5132 132.436 59.998 132.832 59.998V60.1649L133.086 59.999L133.679 60.1649L135.542 59.1643C136.53 58.3307 137.152 57.9139 137.406 57.9139V57.7469H136.813V57.4961C137.039 57.4961 138.225 56.7464 140.371 55.245L144.226 52.8271C144.338 52.8271 144.494 52.7856 144.691 52.7016C144.832 52.7856 145.016 52.8271 145.242 52.8271C145.778 52.3543 146.16 51.9375 146.386 51.5766C147.063 51.5766 147.402 51.2003 147.402 50.4506H147.656V50.8674H147.826C147.967 50.8674 148.108 50.7285 148.249 50.4506L147.953 50.0338C147.953 49.9498 148.518 49.478 149.647 48.6154H149.817L150.113 48.7823C150.113 48.5324 150.297 48.3385 150.664 48.1986C150.664 47.6428 150.862 47.3649 151.257 47.3649C151.821 46.8092 152.104 46.3923 152.104 46.1145C152.273 46.1145 152.513 45.5857 152.824 44.5301C153.05 44.5301 153.29 44.0709 153.544 43.1542C153.544 42.0147 151.342 41.1666 146.936 40.6108C146.541 40.6108 146.018 40.5684 145.37 40.4854C142.856 40.6523 140.427 41.4445 138.084 42.8619C135.458 44.5851 133.227 46.8371 131.391 49.616C130.771 50.3676 130.05 51.4926 129.231 52.993L129.4 53.2439L127.537 57.7469C127.283 57.7469 126.761 58.0808 125.97 58.7475H125.546C123.824 57.3021 122.962 56.316 122.962 55.7873C122.962 55.2315 122.821 54.9536 122.539 54.9536C122.539 55.1485 122.44 55.245 122.242 55.245H121.946C121.946 54.8562 121.565 54.0081 120.802 52.7016C121 52.0349 121.338 51.3257 121.818 50.576C121.734 50.4361 121.692 50.2557 121.692 50.0338C122.002 49.9228 122.426 49.3526 122.962 48.324L122.835 48.0731C123.231 47.9631 123.654 47.4489 124.106 46.5313C124.021 46.5313 123.979 46.4753 123.979 46.3644L124.53 45.9475L124.402 45.6561V45.5307L125.8 41.1946L125.97 40.4854C125.8 39.067 125.603 38.3588 125.377 38.3588C120.915 38.3588 115.634 42.585 109.535 51.0343C109.535 51.1733 109.21 51.7705 108.561 52.8271L106.824 57.3301L107.248 58.0393L107.12 58.623C107.206 58.789 107.248 58.9704 107.248 59.1643L106.527 59.5821H106.104C106.02 59.5821 105.978 59.5397 105.978 59.4567C105.78 59.5397 105.638 59.5821 105.553 59.5821C105.44 59.5821 104.819 58.9704 103.69 57.7469C103.549 57.7469 103.125 57.1487 102.419 55.9542C102.306 55.9542 101.968 55.6619 101.403 55.0791C101.403 53.6057 101.642 52.3967 102.122 51.4512C101.925 51.4512 101.826 51.3122 101.826 51.0343C102.109 50.2277 102.306 49.7974 102.419 49.7414L102.25 49.45V49.1991C102.475 48.9772 102.715 48.3655 102.969 47.3659C103.308 47.3659 103.972 46.6567 104.96 45.2383C105.412 45.2383 105.793 44.863 106.104 44.1133L106.697 43.5711L106.527 43.2787C107.403 41.8893 108.264 40.8183 109.111 40.0686C109.309 40.0686 109.733 39.5958 110.383 38.6502L113.983 35.3986H113.813C113.644 35.5096 113.503 35.5655 113.39 35.5655V35.3986C113.39 35.2317 113.729 35.0512 114.406 34.8563C114.435 35.0512 114.534 35.1487 114.702 35.1487C114.986 34.9538 115.211 34.8563 115.381 34.8563V34.4395H115.253C115.056 34.5235 114.915 34.5649 114.83 34.5649V34.4395C116.044 33.5229 117.23 32.9112 118.388 32.6053H118.557ZM116.693 33.7313V33.8567H117.117C117.259 33.8567 117.4 33.7168 117.541 33.4389H117.413C117.103 33.6338 116.863 33.7313 116.693 33.7313ZM132.111 60.7072H132.239C132.634 60.5682 132.832 60.4293 132.832 60.2903H132.535C132.394 60.2903 132.253 60.4293 132.111 60.7072ZM121.946 70.8393C122.002 71.0342 122.101 71.1307 122.242 71.1307H122.411C122.297 70.9573 122.238 70.7539 122.242 70.5469C122.045 70.5759 121.946 70.6724 121.946 70.8393ZM118.091 73.3827L117.837 73.7995L118.091 73.9249C118.091 73.647 118.19 73.5081 118.388 73.5081V73.3827H118.091ZM115.974 77.0106L116.1 77.302L115.846 77.4274H115.677V77.302C115.705 77.1071 115.804 77.0106 115.974 77.0106ZM112.246 79.8454V80.2622H111.95V80.0953C112.006 79.9284 112.105 79.8454 112.246 79.8454ZM111.695 80.5546L111.95 80.68H112.415C111.681 81.9305 111.159 82.6252 110.848 82.7641H110.679V82.6387C110.791 82.4718 110.848 82.3328 110.848 82.2219L110.128 82.931L109.959 82.6387C110.636 81.5831 111.216 80.8875 111.695 80.5546ZM112.839 82.5133L113.093 82.6387L113.262 82.3473V82.2219H113.093C112.924 82.2498 112.839 82.3463 112.839 82.5133ZM110.976 90.102C111.145 90.1859 111.286 90.2274 111.399 90.2274V90.5188C111.145 90.5188 110.862 90.6587 110.552 90.9366V90.5188C110.552 90.3799 110.693 90.2409 110.976 90.102ZM175.146 29.6866H177.01C181.5 29.6866 185.029 31.6742 187.599 35.6495C188.389 37.3997 188.969 39.096 189.336 40.7353L189.167 41.486V42.1112C189.167 42.3331 189.222 42.5425 189.336 42.7374C188.912 45.2384 188.127 47.667 187.006 49.9498C187.006 50.9234 186.272 52.4102 184.804 54.4114C183.9 54.5783 182.813 55.3425 181.542 56.7049C180.582 57.1217 179.325 57.8309 177.772 58.8315H177.941C179.24 58.4417 180.017 58.2477 180.271 58.2477V58.5391L172.943 60.9995C170.995 60.9995 168.977 60.2759 166.887 58.8315C166.067 58.0528 165.079 56.6769 163.922 54.7037C163.922 54.5648 163.342 53.1329 162.185 50.4091C162.072 49.1856 161.916 48.5739 161.719 48.5739C161.719 44.8775 163.695 41.8478 167.649 39.4848C169.089 38.8451 170.445 38.3868 171.715 38.1089C171.715 37.998 171.757 37.942 171.843 37.942C173.17 38.2199 174.059 38.7341 174.511 39.4848C174.511 39.6797 174.765 40.194 175.273 41.0277V41.486C175.273 42.0697 174.709 42.7924 173.579 43.654C173.777 43.682 173.876 43.7795 173.876 43.9464C173.085 44.3352 172.407 45.0579 171.843 46.1145V46.4058H172.011L172.817 45.9475H173.41L170.148 48.241C168.99 49.4355 168.256 50.6175 167.945 51.785C167.945 52.0069 168.369 52.3128 169.216 52.7016H169.978C171.87 52.7016 174.524 51.8815 177.941 50.2412C180.37 48.463 182.093 46.5168 183.109 44.4047C183.815 43.1262 184.323 41.3885 184.634 39.1934V38.1089C183.9 36.9694 182.291 36.1078 179.806 35.5231C178.874 35.5231 178.097 35.4131 177.476 35.1902L174.808 35.524V35.1902C174.949 35.1902 175.527 35.0937 176.544 34.8978H179.213L179.975 35.0233L180.144 34.7319L179.806 34.5649C178.93 34.6759 178.21 34.7319 177.645 34.7319L175.273 33.9812H174.976C174.751 33.9812 174.539 34.0227 174.341 34.1066C174.156 34.0197 173.953 33.9767 173.748 33.9812L172.943 34.1066C172.379 33.4119 171.969 33.0646 171.715 33.0646C171.292 32.8967 171.08 32.7442 171.08 32.6053C171.08 32.4943 171.292 32.174 171.715 31.6462C171.715 31.2294 171.447 30.8261 170.91 30.4372C172.153 29.9365 173.565 29.6866 175.146 29.6866ZM210.853 0.374725C210.938 0.513443 210.981 0.672373 210.98 0.834004L211.192 0.708571V0.834004C211.05 1.1389 210.98 1.41775 210.98 1.66765H211.065L211.658 1.29135L211.785 1.54222C210.684 4.32201 210.133 5.83686 210.133 6.08676H210.006L210.133 6.29518L208.947 9.00646H209.286C209.37 8.44973 209.54 8.17185 209.794 8.17185C209.794 8.28281 209.907 8.40824 210.133 8.54718C210.218 8.38026 210.26 8.25483 210.26 8.17185H210.387C210.528 8.19983 210.599 8.28281 210.599 8.42272C210.26 9.03348 210.02 9.33934 209.879 9.33934V9.46478C210.049 9.65872 210.133 9.81213 210.133 9.92309H210.26C210.373 9.92309 210.528 9.6867 210.726 9.21391V8.63016C210.839 8.63016 210.995 8.43623 211.192 8.04642L211.065 7.83801L212.039 5.50302C212.039 5.36407 211.884 5.21163 211.573 5.0447C211.432 5.0447 211.262 5.19812 211.065 5.50302C211.178 5.50302 211.376 5.69792 211.658 6.08676C211.121 6.81042 210.768 7.31022 210.599 7.5881H210.387V7.37969H210.133C210.133 7.8245 210.049 8.04642 209.879 8.04642C209.738 8.04642 209.667 7.97695 209.667 7.83801C209.95 7.39416 210.19 6.80945 210.387 6.08676C211.094 4.30851 211.446 3.37741 211.446 3.29346L211.785 3.04259H211.912C211.828 3.37741 211.785 3.65529 211.785 3.87721C212.039 3.87721 212.166 4.03062 212.166 4.33552L211.912 4.46096L212.039 5.12865H212.251C212.28 4.73884 212.562 4.27956 213.098 3.75274C213.098 3.83572 213.14 3.87817 213.225 3.87817C213.125 4.16856 212.912 4.40795 212.632 4.54393C212.632 4.62788 212.675 4.66937 212.759 4.66937C212.505 5.89282 212.223 6.94839 211.912 7.83801L212.166 7.96344C212.448 6.85191 212.759 6.18422 213.098 5.9623C213.098 6.04527 213.14 6.08773 213.225 6.08773C213.14 6.94839 213.014 7.49065 212.844 7.71354H213.225C213.225 7.79652 213.182 7.83897 213.098 7.83897L213.225 8.42175C211.935 12.0985 210.706 15.7961 209.54 19.5129C210.161 19.5129 210.472 19.5409 210.472 19.5959L210.726 19.5129C212.335 19.5129 213.832 19.43 215.216 19.2621C215.385 19.346 215.512 19.3875 215.598 19.3875C215.71 19.2486 216.656 19.1241 218.435 19.0122C218.576 19.0961 218.689 19.1376 218.774 19.1376C218.929 19.0506 219.104 19.0072 219.282 19.0122C219.282 19.1791 219.353 19.263 219.494 19.263C219.522 19.0961 219.607 19.0122 219.748 19.0122H220.807L221.4 18.9292C221.4 18.9852 221.442 19.0122 221.527 19.0122C221.527 18.9012 222.233 18.7488 223.645 18.5539V18.6793L226.61 18.22C226.75 18.3036 226.912 18.3471 227.076 18.3455C227.104 18.1785 227.188 18.0946 227.33 18.0946H227.457C227.621 18.0935 227.782 18.1369 227.922 18.22C228.063 18.1367 228.225 18.0933 228.389 18.0946L228.643 18.22C228.643 18.1091 228.756 17.9846 228.982 17.8447C229.123 17.9286 229.236 17.9701 229.321 17.9701C229.349 17.8312 229.434 17.7617 229.575 17.7617H229.914L229.829 17.9701H230.168C230.168 17.7482 231.001 17.5118 232.667 17.2619C232.808 17.3449 232.964 17.3873 233.133 17.3873C233.387 17.3873 233.74 17.233 234.192 16.9281C234.192 17.095 234.305 17.178 234.531 17.178C234.756 17.178 235.039 17.0525 235.378 16.8026C235.542 16.801 235.703 16.8444 235.843 16.9281C236.013 16.8441 236.14 16.8026 236.225 16.8026L236.436 16.9281C237.115 16.5662 237.905 16.3028 238.809 16.1359C238.809 16.052 238.894 16.0105 239.062 16.0105C239.091 16.1494 239.161 16.2189 239.275 16.2189C239.529 16.2189 240.051 16.0664 240.841 15.7606C240.983 15.8435 241.138 15.886 241.308 15.886H241.562V15.7606C241.478 15.6216 241.434 15.5097 241.434 15.4267H241.562C241.726 15.4251 241.887 15.4685 242.027 15.5522L246.179 14.4676H246.306L246.179 14.2592V14.1338C246.32 14.1627 246.39 14.2457 246.39 14.3847L246.645 14.2592L246.899 14.3847C248.638 13.824 250.405 13.3506 252.193 12.9663H252.574V12.6334H253.041C253.831 12.4945 254.227 12.3276 254.227 12.1326L254.565 12.3835C254.99 12.1616 255.625 11.9242 256.472 11.6743V11.5489L257.065 11.6743C258.392 11.2015 259.422 10.9372 260.157 10.8822C260.157 10.7982 260.241 10.7567 260.411 10.7567L260.623 10.8822L261.809 10.3814H262.063L262.402 10.6323H262.528L262.402 10.3814C262.823 10.2433 263.223 10.0467 263.588 9.79766H263.926C263.926 9.6867 264.053 9.57574 264.307 9.46478C264.307 9.57574 264.421 9.6867 264.646 9.79766C264.646 9.65872 264.774 9.58925 265.028 9.58925L265.621 9.71468C265.621 9.54776 265.691 9.46381 265.832 9.46381C266.002 9.54776 266.129 9.58925 266.214 9.58925L266.807 9.13093H266.891L266.807 9.33934V9.46478H266.891C268.218 9.04795 269.094 8.69963 269.518 8.42272L270.111 8.54718C270.138 8.38026 270.224 8.29632 270.365 8.29632L270.577 8.42175H270.704V8.29632H270.449V8.04642L271.296 8.17185H271.423L271.296 7.96344V7.83801L272.356 7.46267V7.5881L272.228 7.83897H272.821C273.075 7.61609 274.064 7.33724 275.786 7.00436C275.815 6.8934 276.845 6.58753 278.879 6.08773C278.906 5.92081 278.992 5.83686 279.133 5.83686L279.344 5.9623C279.739 5.79537 281.251 5.40653 283.877 4.7948C283.877 4.71086 283.905 4.66937 283.961 4.66937H284.935L285.528 4.7948V4.33552C285.641 4.33552 286.108 4.21009 286.926 3.96115H287.392V4.08659L287.308 4.33552H287.392C288.381 4.03062 289.016 3.87721 289.298 3.87721V3.96115C289.214 4.18307 287.759 4.61437 284.935 5.25408L276.379 7.58907V7.83801H276.507C277.241 7.5881 277.678 7.46267 277.819 7.46267V7.5881L278.286 7.37969C278.393 7.42711 278.507 7.45522 278.624 7.46267C279.02 7.26873 279.217 7.11532 279.217 7.00436L279.81 7.12979C280.206 6.82393 280.488 6.67051 280.658 6.67051L281.251 6.79594C281.278 6.62902 281.364 6.54508 281.505 6.54508L281.716 6.67051C281.716 6.42061 282.239 6.22667 283.284 6.08676H283.496V6.42061H283.877L283.749 5.83686H284.47L285.147 5.37855H285.275L285.528 5.50398C285.557 5.33706 285.627 5.25311 285.74 5.25311H285.868C285.868 5.44802 285.952 5.64196 286.121 5.83686L285.74 6.29518C285.825 6.29518 285.868 6.33763 285.868 6.42061H285.74C285.599 6.42061 285.528 6.30965 285.528 6.08676C285.359 6.11571 285.275 6.18422 285.275 6.29518C285.444 6.37912 285.571 6.42061 285.656 6.42061C285.656 6.69849 285.09 6.85191 283.961 6.87892C284.046 6.73998 284.089 6.62902 284.089 6.54604H283.961C283.848 6.62902 283.622 6.67148 283.284 6.67148C283.284 6.80945 283.397 6.87892 283.622 6.87892V7.12979L283.029 7.25522L282.903 7.00436C282.903 6.92138 282.945 6.87892 283.029 6.87892L282.903 6.67051V6.54508H283.284V6.42061C283.199 6.42061 283.072 6.37912 282.903 6.29518C282.67 6.46434 282.387 6.55259 282.098 6.54604V6.79594C282.267 6.79594 282.493 6.9069 282.775 7.12979H282.903L282.691 7.46267C282.747 7.62959 282.775 7.75503 282.775 7.83897C281.871 8.06089 281.278 8.25483 280.996 8.42175C280.855 8.42175 280.784 8.33877 280.784 8.17185C281.97 7.81099 282.563 7.57363 282.563 7.46267H282.098V7.25426H282.31V7.00436H282.182C281.674 7.56012 281.123 7.83801 280.53 7.83801C280.445 7.67205 280.403 7.54661 280.403 7.46267H280.319L279.937 7.71354L279.726 7.5881L279.598 7.83897H279.937V8.04642C278.526 8.46421 277.819 8.74113 277.819 8.88103H277.947L278.751 8.7556V8.88103C278.751 9.01997 278.116 9.25637 276.845 9.58925C276.845 9.67319 276.774 9.71468 276.633 9.71468C276.379 9.71468 276.252 9.54776 276.252 9.21391H276.04C275.702 9.77064 275.377 10.0485 275.066 10.0485V9.92309C274.756 10.09 274.488 10.174 274.261 10.174V9.92309C274.854 9.78415 275.207 9.71468 275.321 9.71468L275.193 9.46381C270.845 10.6313 268.642 11.299 268.586 11.4659C270.35 11.096 272.089 10.6224 273.796 10.0476C273.796 10.1315 274.148 10.3679 274.854 10.7567C274.572 10.8957 274.093 11.0491 273.414 11.216V11.0906L273.203 11.216H272.737C272.85 10.9372 273.358 10.7847 274.261 10.7567C274.261 10.5898 274.177 10.5068 274.007 10.5068H273.414C272.68 10.7577 272.214 10.8822 272.016 10.8822H271.763C271.763 11.133 271.127 11.355 269.856 11.5489C269.856 11.7158 269.631 11.7998 269.179 11.7998L269.263 12.0497C269.631 11.8827 270.153 11.7988 270.83 11.7988H271.042C271.042 11.4939 271.282 11.3405 271.763 11.3405H272.356V11.5489H272.144C271.889 11.5489 271.41 11.7158 270.704 12.0497C270.083 12.0497 269.094 12.3555 267.739 12.9663C266.948 12.9663 266.553 13.0782 266.553 13.3001C266.446 13.2527 266.331 13.2246 266.214 13.2172L265.705 13.4256C265.705 13.2866 265.634 13.2172 265.493 13.2172C265.493 13.495 265.056 13.6899 264.181 13.8009L263.926 13.6755H263.842V13.8009H264.053C264.053 13.9399 263.983 14.0093 263.842 14.0093L263.249 13.8839C263.22 13.9958 262.825 14.2312 262.063 14.5931C262.063 14.5091 262.02 14.4676 261.935 14.4676C261.851 14.6346 261.809 14.76 261.809 14.8439H261.681C261.681 14.676 261.639 14.5931 261.555 14.5931L261.342 14.7185L261.088 14.5931C261.004 14.5931 260.806 14.787 260.495 15.1768C260.495 15.0379 260.425 14.9684 260.284 14.9684H259.902C259.592 15.1903 258.886 15.4122 257.785 15.6351C257.7 15.3293 257.545 15.1768 257.318 15.1768C257.149 15.2598 257.022 15.3023 256.937 15.3023V15.4277C257.276 15.4277 257.446 15.4962 257.446 15.6351C256.966 15.83 256.725 15.997 256.725 16.1359H256.853L256.725 16.3443V16.4697C259.549 15.775 261.794 15.1073 263.46 14.4676C263.546 14.4676 263.588 14.5091 263.588 14.5931C264.209 14.2872 264.646 14.1338 264.9 14.1338L265.112 14.2592C265.112 14.0923 266.468 13.661 269.179 12.9663C278.441 10.3264 283.806 8.85305 285.275 8.54718V8.7556L271.551 12.6334C270.421 12.9393 269.786 13.1612 269.644 13.3001C269.278 13.3001 267.343 13.8144 263.842 14.8439C263.588 14.9819 262.076 15.4132 259.309 16.1359C259.197 16.1359 258.802 16.3163 258.123 16.6782C258.017 16.6304 257.902 16.602 257.785 16.5942C257.7 16.7332 257.658 16.8451 257.658 16.9281L257.065 16.8026H256.937V16.9281H257.192V17.178C255.215 17.5398 254.113 17.8871 253.888 18.22C253.718 18.137 253.592 18.0946 253.507 18.0946C253.196 18.3734 251.855 18.8038 249.483 19.3875C249.483 19.4715 249.441 19.5129 249.355 19.5129C249.214 19.43 249.102 19.3875 249.017 19.3875L248.89 19.5959L248.297 19.5129C248.043 19.5129 247.774 19.6654 247.492 19.9713C247.322 19.8883 247.195 19.8458 247.111 19.8458L246.983 20.0967L246.772 19.9713H246.518C246.518 20.1932 246.447 20.3051 246.306 20.3051H246.052L245.459 20.1797C245.459 20.3466 245.261 20.5135 244.866 20.6804L244.146 20.555C243.101 21.2497 238.526 22.3342 230.422 23.8066C228.445 24.1964 225.876 24.5853 222.713 24.9741V24.8497C218.111 25.5733 213.281 25.9342 208.227 25.9342H208.015C207.732 26.212 206.942 28.9639 205.644 34.1896C201.831 46.0035 198.781 54.2445 196.495 58.9144C196.297 59.6091 195.788 60.2768 194.969 60.9156H194.715C193.924 60.9156 193.529 60.8326 193.529 60.6657L193.318 60.7911H193.19L191.072 59.999C190.988 59.999 190.86 60.0269 190.691 60.0819C190.126 60.0819 189.575 59.6931 189.039 58.9144C190.931 54.9951 192.315 51.813 193.19 49.3661L195.309 43.8624C195.309 43.6685 195.746 42.473 196.621 40.277C197.723 37.0254 198.866 33.0916 200.052 28.4766C200.193 28.4766 200.518 27.588 201.026 25.8087C197.214 25.169 194.687 24.3904 193.444 23.4737C193.049 23.4737 191.976 22.6961 190.225 21.1388V20.7634H190.479V20.555C190.084 19.9713 189.844 19.2351 189.76 18.3455C189.674 18.3455 189.632 18.304 189.632 18.22L189.76 17.9701C189.675 17.8319 189.631 17.6733 189.632 17.5118H189.76L189.632 17.2609V17.178C189.716 16.0105 189.957 15.4267 190.353 15.4267L195.902 17.9701L199.459 18.9292L199.713 18.8038C200.165 18.9427 201.153 19.1376 202.679 19.3875C203.074 18.3869 203.469 17.1365 203.865 15.6351C204.387 13.5368 205.052 11.4754 205.855 9.46478C205.968 8.85305 206.165 8.54718 206.448 8.54718C206.448 8.46421 206.42 8.42175 206.363 8.42175C206.363 7.67205 206.674 7.00436 207.295 6.42061L207.168 6.2122C207.705 5.82335 208.058 5.62845 208.227 5.62845C208.227 5.37758 208.199 5.25311 208.142 5.25311C208.142 5.08619 208.255 4.62788 208.481 3.87721H209.074C209.582 2.29289 210.175 1.1254 210.853 0.374725ZM211.912 2.33438H212.166V2.71068H211.658V2.58525C211.687 2.41832 211.771 2.33438 211.912 2.33438ZM290.866 2.91813V3.16899C290.301 3.30793 289.976 3.3774 289.891 3.3774L289.764 3.16899C290.131 3.00207 290.498 2.91813 290.866 2.91813ZM291.459 3.29443H291.798V3.50091H291.205C291.232 3.36197 291.317 3.2925 291.459 3.2925V3.29443ZM291.077 3.50187C291.077 3.69678 290.612 3.84923 289.68 3.96115L289.552 3.75274C290.343 3.58582 290.851 3.50187 291.077 3.50187ZM292.729 3.62731H292.984C292.984 3.82221 292.63 3.93317 291.924 3.96115V3.75178L292.729 3.62731ZM285.868 4.54393V4.66937H285.994C286.616 4.58639 286.926 4.47543 286.926 4.33552H286.799C286.743 4.33552 286.432 4.40403 285.868 4.54393ZM290.484 4.21105V4.46192L290.273 4.33649C290.273 4.47543 290.187 4.5449 290.019 4.5449H289.891C289.75 4.5449 289.68 4.47543 289.68 4.33552L290.484 4.21105ZM289.68 4.46192L289.426 4.7948C289.51 4.93374 289.552 5.04567 289.552 5.12865H289.426L289.087 4.91927H288.705L288.833 5.12865V5.25408H288.578C288.465 5.25408 288.352 5.14215 288.24 4.91927C288.409 4.75331 288.889 4.60086 289.68 4.46096V4.46192ZM287.901 4.7948L288.112 5.37855L287.773 5.62941H287.647C287.477 5.62941 287.392 5.54547 287.392 5.37855H287.901V5.25311H287.392C287.392 5.42004 287.321 5.50398 287.18 5.50398C287.01 5.50398 286.926 5.42004 286.926 5.25311C286.926 5.11417 287.251 4.96172 287.901 4.7948ZM286.121 5.25311H286.714C286.714 5.55898 286.785 5.71239 286.926 5.71239H287.901V5.83783C287.901 6.00378 287.533 6.12922 286.799 6.2122V6.08676L286.926 5.83686C286.503 5.83686 286.234 5.68441 286.121 5.37855V5.25311ZM285.528 5.62941L285.401 5.83686V5.9623C285.542 5.87889 285.703 5.83548 285.868 5.83686V5.71143C285.75 5.70412 285.635 5.676 285.528 5.62845V5.62941ZM210.98 5.71143L210.853 6.29518C210.966 6.29518 211.121 6.14273 211.319 5.83686L211.065 5.71143H210.98ZM284.215 6.08773V6.29518C284.385 6.29518 284.47 6.37912 284.47 6.54604H284.808C284.978 6.54604 285.063 6.4621 285.063 6.29518C284.893 6.29518 284.808 6.22571 284.808 6.08676H285.147V5.83686C284.922 6.00379 284.611 6.08773 284.215 6.08773ZM286.714 6.42061H286.926V6.67148H286.461C286.489 6.50455 286.573 6.42061 286.714 6.42061ZM210.599 6.67148C210.599 6.78244 210.528 6.93489 210.387 7.12979V7.25522C210.501 7.25522 210.655 7.10084 210.853 6.79594L210.599 6.67051V6.67148ZM278.879 7.5881C278.963 7.5881 279.076 7.62959 279.217 7.71354H279.344V7.5881C279.203 7.5881 279.133 7.51863 279.133 7.37969C278.963 7.40767 278.879 7.47618 278.879 7.5881ZM272.821 7.37969H272.949V7.46267C272.949 7.62959 272.878 7.71354 272.737 7.71354L272.61 7.46267L272.821 7.37969ZM275.659 7.83801C275.744 7.97695 275.786 8.13036 275.786 8.29728H275.914C275.914 8.15834 276.026 7.96344 276.252 7.71354H276.04C275.871 7.79652 275.744 7.83897 275.659 7.83897V7.83801ZM278.412 7.71257L278.54 7.96344C278.681 7.88046 278.794 7.83801 278.879 7.83801V7.71257H278.412ZM279.133 8.04642H279.217C279.387 8.04642 279.472 7.97695 279.472 7.83801H279.344C279.203 7.86695 279.133 7.93546 279.133 8.04642ZM284.342 7.71354H284.682V7.96344H284.342V7.71257V7.71354ZM211.446 9.21295C211.672 9.21295 211.87 8.8241 212.039 8.04545H211.912C211.687 8.04545 211.531 8.43526 211.446 9.21295ZM273.88 8.54622L275.321 8.17089V8.04545H275.193C274.318 8.15738 273.88 8.3243 273.88 8.54622ZM277.819 8.42079H278.031C278.201 8.33781 278.328 8.29535 278.412 8.29535V8.17089H278.031C277.89 8.19887 277.819 8.28185 277.819 8.42175V8.42079ZM283.496 8.04545L283.622 8.29632L283.284 8.54622H282.436C282.436 8.40728 282.79 8.24036 283.496 8.04545ZM280.065 8.29632H280.53C280.53 8.46324 280.46 8.54622 280.319 8.54622H280.065V8.29535V8.29632ZM272.821 8.6292V8.88007H272.949L273.203 8.75463C273.344 8.83761 273.5 8.88007 273.668 8.88007H273.796C273.796 8.76814 273.641 8.65815 273.33 8.54622C273.33 8.60218 273.288 8.6292 273.203 8.6292V8.54718C273.08 8.593 272.952 8.62095 272.821 8.63016V8.6292ZM281.377 8.54622H281.505C281.646 8.54622 281.716 8.61569 281.716 8.75463V8.88007H281.377V8.54622ZM265.493 10.7558V10.8812H265.832C266.115 10.7143 266.637 10.5474 267.4 10.3804C267.4 10.4924 267.513 10.6168 267.739 10.7567H267.865C267.696 10.5618 267.612 10.4364 267.612 10.3804C267.865 10.2415 268.105 10.172 268.332 10.172L268.925 10.2975L268.798 10.0466L272.482 9.00453V8.75463L265.493 10.7558ZM280.191 8.88007H280.658C280.658 9.04699 280.573 9.12997 280.403 9.12997H280.191V8.88007ZM273.796 9.12997V9.33838C274.049 9.33838 274.247 9.37987 274.389 9.46381V9.21295L273.796 9.12997ZM205.982 9.71371V10.2975H206.109L206.237 9.71371H205.982ZM272.356 9.71371C272.384 9.85266 272.468 9.92213 272.61 9.92213H272.737C272.737 9.78319 272.652 9.71371 272.482 9.71371H272.356ZM264.774 9.79669V9.92213H265.239V9.79669H264.774ZM276.972 9.79669H277.354C277.354 9.96362 277.269 10.0476 277.1 10.0476H276.972V9.79669ZM210.006 10.2975V10.5059C210.175 10.4229 210.303 10.3804 210.387 10.3804V10.0476H210.26C210.091 10.0755 210.006 10.1585 210.006 10.2975ZM208.608 10.172V10.5059C208.749 10.5059 208.819 10.4364 208.819 10.2975V10.172H208.608ZM276.379 10.0466V10.2975L275.786 10.3804C275.786 10.2145 275.984 10.1016 276.379 10.0466ZM274.982 10.3804H275.575V10.6313C275.292 10.7143 275.123 10.7567 275.066 10.7567L274.982 10.5059V10.3804ZM263.46 11.3395V11.465H263.714C263.855 11.465 264.096 11.381 264.435 11.2141C264.576 11.298 264.689 11.3395 264.774 11.3395L264.9 11.0896H264.646C264.448 11.0896 264.053 11.1726 263.46 11.3405V11.3395ZM259.691 11.2141V11.3395H260.157V11.2141H259.691ZM262.063 11.9233H262.402L262.74 11.6724C262.91 11.7563 263.037 11.7978 263.121 11.7978L263.249 11.5479C263.079 11.5479 262.995 11.5209 262.995 11.465C262.373 11.6319 262.063 11.7843 262.063 11.9233ZM266.891 12.0487H267.018C267.188 12.0487 267.272 11.9648 267.272 11.7978H267.146C266.976 11.8268 266.891 11.9098 266.891 12.0487ZM268.458 12.0487C268.458 11.9648 268.416 11.9233 268.332 11.9233C268.332 12.0622 267.499 12.3266 265.832 12.7154V12.9663H266.214C266.412 12.8264 267.358 12.5215 269.051 12.0487V11.7978H268.798L268.458 12.0487ZM262.867 13.0908H263.249V12.8399H263.121C262.953 12.8688 262.867 12.9518 262.867 13.0908ZM264.181 13.0908V13.2992L265.367 13.2162V13.0908C265.282 13.0908 265.169 13.0493 265.028 12.9653C264.752 13.0438 264.468 13.086 264.181 13.0908ZM208.819 13.2162V13.5491H209.201V13.2162H208.819ZM261.088 14.0074V14.1328H261.342C261.625 14.1328 262.486 13.8974 263.926 13.4246V13.2992H263.588C263.136 13.55 262.303 13.7855 261.088 14.0084V14.0074ZM260.877 13.6745H261.088C261.258 13.5915 261.385 13.5491 261.47 13.5491V13.4236H261.088C260.947 13.4526 260.877 13.5356 260.877 13.6745ZM258.123 14.3837V14.5921L258.971 14.4667L258.844 14.2583L258.123 14.3837ZM257.53 14.4667V14.5921H258.039L257.912 14.3837C257.789 14.4295 257.661 14.4574 257.53 14.4667ZM260.03 14.5921H260.284C260.425 14.5921 260.495 14.5226 260.495 14.3837H260.284C260.114 14.3837 260.03 14.4532 260.03 14.5921ZM258.632 14.7175V14.9674C258.886 14.9674 259.084 14.9954 259.225 15.0504C259.225 14.8285 259.45 14.7175 259.902 14.7175V14.4667H259.818C259.253 14.6336 258.857 14.7175 258.632 14.7175ZM255.879 14.9674V15.0504H256.344C256.514 15.0504 256.599 14.9809 256.599 14.842C256.514 14.842 256.472 14.8005 256.472 14.7166C256.218 14.8835 256.02 14.9674 255.879 14.9674ZM257.785 15.0504V15.1759C257.949 15.1771 258.11 15.1337 258.251 15.0504L258.505 15.1759H258.632V15.0504C258.378 15.0504 258.251 14.9395 258.251 14.7175C257.94 14.8285 257.785 14.9395 257.785 15.0504ZM254.227 16.0095V16.1349H254.353L255.879 15.7586C256.048 15.8426 256.175 15.8841 256.26 15.8841V16.0095C256.26 16.1484 256.175 16.2179 256.006 16.2179C255.836 16.2179 255.681 16.1899 255.539 16.1349L254.82 16.4678L254.565 16.3424C254.565 16.4543 254.368 16.6068 253.972 16.8017H253.76L253.507 16.6762C253.507 16.8431 253.309 16.9271 252.914 16.9271L253.041 17.177L252.786 17.2609C252.786 17.121 252.715 17.0516 252.574 17.0516C252.406 17.1355 252.278 17.177 252.193 17.177C252.363 17.3719 252.448 17.5243 252.448 17.6353H252.702L252.574 17.3854V17.26L253.167 17.3854C253.309 17.3854 253.379 17.3159 253.379 17.177L253.634 17.2609H253.888L253.76 17.0516L253.972 16.9261C254.001 17.094 254.086 17.177 254.227 17.177H254.481L254.353 16.9261L254.565 16.8017V17.0525C255.583 16.8576 256.26 16.5797 256.599 16.2179L256.472 16.0095L256.853 15.4258H256.26V15.7596H256.132V15.4258L254.227 16.0095ZM252.193 16.6772H252.702C252.843 16.6772 252.914 16.6068 252.914 16.4678H252.448C252.278 16.4968 252.193 16.5662 252.193 16.6772ZM249.144 17.3854V17.5108H249.61V17.26H249.483C249.342 17.3439 249.229 17.3854 249.144 17.3854ZM251.855 17.3854V17.5108C251.883 17.6778 251.968 17.7607 252.109 17.7607H252.193V17.3854H251.855ZM250.923 17.5108C250.924 17.6723 250.88 17.831 250.795 17.9692H251.134V17.7607L251.388 17.8437H251.727V17.7607C251.727 17.5938 251.657 17.5099 251.516 17.5099H250.923V17.5108ZM250.33 17.7607C250.33 17.8997 250.245 17.9692 250.076 17.9692C250.104 18.1361 250.189 18.22 250.33 18.22H250.541V18.0946L250.415 17.8437C250.499 17.8437 250.541 17.8167 250.541 17.7607H250.33ZM246.306 18.8028L246.39 19.0112C246.249 19.0952 246.136 19.1366 246.052 19.1366C246.08 19.3036 246.165 19.3875 246.306 19.3875C247.153 19.0537 247.704 18.7748 247.958 18.5529C248.156 18.5529 248.381 18.6368 248.636 18.8038L248.762 18.5529C248.678 18.5529 248.636 18.5114 248.636 18.4275L249.229 18.5529L249.948 18.3445C249.948 18.1776 249.878 18.0936 249.737 18.0936H249.61L249.229 18.3445C249.229 18.1776 249.201 18.0936 249.144 18.0936C248.974 18.1776 248.848 18.2191 248.762 18.2191V18.0936C247.52 18.5664 246.701 18.8028 246.306 18.8028ZM244.739 19.3866C244.767 19.5255 244.851 19.595 244.993 19.595C245.557 19.595 245.868 19.484 245.925 19.2621L245.332 19.1366V19.3875H245.204V19.1366H244.993C244.823 19.1646 244.739 19.2466 244.739 19.3866ZM243.807 19.512V19.595L244.527 19.7204C244.527 19.6094 244.4 19.4985 244.146 19.3866C244.005 19.4705 243.892 19.512 243.807 19.512ZM214.919 29.1858H215.216C215.216 29.5756 215.272 29.7695 215.385 29.7695L215.216 30.4787V31.8971C215.216 32.0071 215.173 32.063 215.089 32.063L215.216 32.3554L215.089 33.0636H215.512C215.625 32.147 215.823 31.3268 216.105 30.6032H216.826C216.854 30.4372 216.952 30.3533 217.122 30.3533L217.715 30.7711L217.842 30.1873H218.138V31.1879C218.308 31.1879 218.506 30.7151 218.731 29.7695H219.155C219.155 30.1593 219.254 30.3533 219.452 30.3533V31.4793C219.452 31.5632 219.395 31.6047 219.282 31.6047C219.395 31.7716 219.452 32.063 219.452 32.4799H219.579V31.7716H219.875V32.3554C219.677 32.8552 219.48 34.7039 219.282 37.9005C219.084 38.5402 218.605 41.7783 217.842 47.6158C217.757 47.6158 217.715 47.7682 217.715 48.0741L217.842 48.325C217.644 48.8518 217.009 52.6746 215.936 59.7905C215.823 59.7905 215.442 60.1659 214.793 60.9156C211.884 60.7216 210.43 60.4293 210.43 60.0404L209.412 60.2074C207.776 59.9854 206.956 59.6516 206.956 59.2068V58.4976C207.436 58.4976 208.552 53.5362 210.303 43.6125C210.444 42.2231 210.642 41.2776 210.896 40.7768L210.726 40.4854C210.924 39.3739 211.46 37.2338 212.335 34.0642C212.335 33.5914 212.378 33.356 212.463 33.356L212.335 33.0636C212.589 32.3969 212.787 32.063 212.928 32.063C212.928 32.147 212.971 32.1885 213.056 32.1885C213.281 31.049 213.564 30.1864 213.903 29.6026L214.2 29.7695H214.368C214.368 29.5756 214.411 29.4781 214.496 29.4781H214.919V29.1858ZM253.592 20.9303H253.718V21.3066L253.592 21.598C253.76 21.6251 253.846 21.7235 253.846 21.8894L253.083 23.2238V23.3908H253.21C253.21 23.1129 253.464 22.7925 253.972 22.4317V22.5571C253.945 22.7231 253.52 23.4043 252.702 24.5998V24.7667C253.464 24.2939 253.846 23.9186 253.846 23.6407H253.972V23.8076C253.972 24.2804 253.634 24.7802 252.956 25.3089L252.702 25.142L252.532 25.4334V25.5588H252.956L252.829 25.8502C252.942 25.8502 253.069 25.9892 253.21 26.268V26.3934L252.532 27.477V27.643H252.829V27.7684C252.829 27.9073 252.688 28.0463 252.406 28.1852C252.406 27.9913 252.32 27.8938 252.151 27.8938L251.897 28.7275H252.024L252.532 28.3106H252.702C252.702 28.4496 252.518 28.63 252.151 28.8529L252.278 29.1443C252.278 29.2832 251.939 29.6026 251.262 30.1034C251.685 30.1314 251.897 30.2703 251.897 30.5202C251.276 31.6597 250.711 32.3409 250.202 32.5638C249.864 33.0076 249.61 33.2305 249.441 33.2305V33.5229H249.695V33.2305C249.864 33.2305 249.948 33.3695 249.948 33.6474H250.076L251.643 31.6047H251.77C251.064 33.0221 249.681 35.0783 247.618 37.7751H247.492V37.6496L248.043 36.6915H247.915L246.348 38.0259C246.291 38.3038 246.08 38.6792 245.713 39.151L245.967 39.2764H246.094L247.238 38.025L247.365 38.3173C245.896 40.6243 245.036 42.2636 244.781 43.2382C244.697 43.2382 244.146 44.1133 243.129 45.8646C241.548 47.3929 240.122 49.2136 238.851 51.3257C238.173 52.4932 237.481 53.9116 236.776 55.5789C235.307 58.5536 234.488 60.1524 234.319 60.3743L233.429 61.2079C233.316 61.2079 233.26 61.1664 233.26 61.0825L233.006 61.2079C232.554 60.8741 231.608 60.5547 230.168 60.2489C230.168 60.1379 229.829 59.9565 229.152 59.7066L228.897 59.832C227.428 59.4702 226.694 58.6925 226.694 57.497C226.158 55.0791 225.466 50.9234 224.619 45.0309C224.111 43.1687 223.419 39.9711 222.543 35.4401H222.417C222.417 34.3565 222.897 33.8143 223.857 33.8143C225.325 33.8143 227.005 34.5784 228.897 36.1078C229.208 36.1078 229.547 36.3857 229.914 36.9414C229.914 37.0244 229.871 37.0669 229.787 37.0669C230.041 37.7895 230.86 41.3605 232.243 47.7818H232.117C232.285 48.3375 232.371 48.6993 232.371 48.8663H232.497L241.181 35.9823C241.181 35.9264 242.55 33.9252 245.29 29.9779C245.29 29.812 246.419 28.2547 248.678 25.308C248.678 24.9471 249.539 23.8076 251.262 21.8894C251.516 21.8894 251.939 21.7929 252.532 21.598L252.829 21.7235C252.829 21.6395 253.083 21.3761 253.592 20.9303ZM251.897 25.5588V25.8502H252.151C252.151 25.6283 252.236 25.3919 252.406 25.142V25.0166C252.292 25.0166 252.122 25.197 251.897 25.5588ZM251.008 31.1879L250.881 31.4793V31.6047H251.008C251.008 31.4928 251.05 31.3538 251.134 31.1879H251.008ZM265.917 29.5196C269.278 29.5196 272.214 30.8396 274.728 33.4804C275.235 34.6769 275.631 36.1078 275.914 37.7751C275.914 37.859 275.871 37.9005 275.786 37.9005L275.914 38.7341V39.7347C275.914 41.2081 274.686 43.0423 272.228 45.2383C267.541 48.0461 264.406 49.45 262.825 49.45C262.627 49.3661 262.486 49.3246 262.402 49.3246C262.402 49.4915 262.303 49.5754 262.105 49.5754C261.992 49.5754 261.935 49.533 261.935 49.45L261.216 49.5754H260.749C260.608 49.5754 260.467 49.45 260.326 49.1991L260.453 48.9492C260.058 48.4765 259.719 48.241 259.437 48.241C257.488 46.5178 256.514 45.1554 256.514 44.1548L256.811 44.0294H259.013C261.611 43.5296 264.788 42.0147 268.544 39.4848C270.209 37.8445 271.042 36.8025 271.042 36.3577L269.009 35.9823H267.23C264.604 36.2043 261.174 37.7751 256.937 40.6938C254.763 42.585 253.394 44.8215 252.829 47.4064C253.76 49.7414 257.629 52.0629 264.435 54.3699C266.496 55.0096 269.15 55.6898 272.398 56.4125L272.525 56.6634C272.327 56.6914 272.228 56.7599 272.228 56.8718L272.525 56.9972C272.722 56.9972 272.821 56.8853 272.821 56.6634H273.542V56.8718H273.118V57.1217H273.414C274.488 57.1217 275.024 57.3301 275.024 57.7469C275.024 57.9689 275.222 58.0808 275.617 58.0808V58.4561C275.617 58.623 275.518 58.707 275.321 58.707H274.6C273.838 58.707 272.61 58.5391 270.916 58.2053V58.4561H271.339V58.707H270.916C270.661 58.5391 270.464 58.4561 270.323 58.4561V58.2053H270.619V58.0798H270.195L269.73 58.3307H269.602C268.868 58.3307 268.473 58.2053 268.416 57.9554H269.137C269.137 57.8164 269.038 57.7469 268.84 57.7469H268.416C268.416 57.8859 268.218 57.9554 267.823 57.9554V58.0808C268.106 58.0808 268.642 58.2892 269.433 58.706L269.898 58.4552H270.026V58.5806L269.898 58.8315H270.026C270.224 58.7475 270.379 58.706 270.491 58.706L273.542 59.6651C273.937 59.6651 274.135 59.7346 274.135 59.8735H273.838L272.102 59.7905H271.932V59.8735C272.016 59.8735 272.314 59.915 272.821 59.999V60.1244C272.821 60.2353 272.581 60.4013 272.102 60.6242C271.847 60.4573 271.65 60.3733 271.509 60.3733L271.212 60.4988C270.449 60.1649 269.955 59.999 269.73 59.999H269.602L270.916 60.7496C270.52 60.7496 270.323 60.9436 270.323 61.3334H269.433C268.642 61.3334 268.007 61.1664 267.527 60.8316C264.195 60.0269 260.665 58.7475 256.937 56.9963C254.424 55.273 252.702 53.7582 251.77 52.4517C250.612 51.3402 249.681 48.6579 248.974 44.4047L248.848 42.9458C249.045 41.0836 249.384 39.7212 249.864 38.8596C250.513 37.6641 251.601 36.5101 253.125 35.3986C253.125 34.9818 254.001 34.3421 255.751 33.4804C257.164 32.6748 258.194 31.9521 258.844 31.3124C261.357 30.1169 263.714 29.5196 265.917 29.5196ZM274.728 40.9022C274.728 41.0412 274.389 41.5699 273.711 42.4865H273.838C274.318 42.4865 274.713 41.9588 275.024 40.9022H274.728ZM273.542 42.612C273.315 43.3067 271.805 44.5022 269.009 46.1974C266.073 47.6428 264.505 48.3655 264.307 48.3655V48.4909H264.732C269.08 47.1845 272.172 45.2663 274.007 42.7374L273.711 42.612H273.542ZM267.23 57.9554H267.696V57.7469H267.527C267.329 57.7469 267.23 57.8164 267.23 57.9554ZM272.695 58.8315H273.118V59.0399H272.695V58.8315ZM267.4 59.5397V59.7905C267.484 59.7905 267.625 59.8176 267.823 59.8735L267.951 59.6651C267.753 59.6651 267.569 59.6236 267.4 59.5397ZM268.713 60.6242C268.939 60.6242 269.137 60.6657 269.305 60.7496L269.433 60.4988L269.137 60.3733H269.009C268.811 60.4023 268.713 60.4852 268.713 60.6242Z" fill="white"/>
</svg>
